<?xml version="1.0" encoding="utf-8"?>
<!-- Generator: Adobe Illustrator 23.0.3, SVG Export Plug-In . SVG Version: 6.00 Build 0)  -->
<svg version="1.1" id="Layer_1" xmlns="http://www.w3.org/2000/svg" xmlns:xlink="http://www.w3.org/1999/xlink" x="0px" y="0px"
	 viewBox="0 0 100 100" style="enable-background:new 0 0 100 100;" xml:space="preserve">
<g>
	<path d="M82.9,7.5h-8.1V2.3c0-1.1-0.9-2-2-2s-2,0.9-2,2v5.2H27.9V2.3c0-1.1-0.9-2-2-2s-2,0.9-2,2v5.2h-7c-7,0-12.8,5.7-12.8,12.8
		v66.8c0,7,5.7,12.8,12.8,12.8h66c7,0,12.8-5.7,12.8-12.8V20.3C95.7,13.2,90,7.5,82.9,7.5z M16.9,11.5h7v3.4c0,1.1,0.9,2,2,2
		s2-0.9,2-2v-3.4h42.9v3.4c0,1.1,0.9,2,2,2s2-0.9,2-2v-3.4h8.1c4.8,0,8.8,3.9,8.8,8.8v1.7H8.2v-1.7C8.2,15.4,12.1,11.5,16.9,11.5z
		 M82.9,95.9h-66c-4.8,0-8.8-3.9-8.8-8.8V25.9h83.6v61.2C91.7,92,87.8,95.9,82.9,95.9z"/>
	<path d="M31.1,33.5H20.5c-1.1,0-2,0.9-2,2v10.6c0,1.1,0.9,2,2,2h10.6c1.1,0,2-0.9,2-2V35.5C33.1,34.4,32.2,33.5,31.1,33.5z
		 M29.1,44.1h-6.6v-6.6h6.6V44.1z"/>
	<path d="M55.2,33.5H44.6c-1.1,0-2,0.9-2,2v10.6c0,1.1,0.9,2,2,2h10.6c1.1,0,2-0.9,2-2V35.5C57.2,34.4,56.3,33.5,55.2,33.5z
		 M53.2,44.1h-6.6v-6.6h6.6V44.1z"/>
	<path d="M79.4,33.5H68.8c-1.1,0-2,0.9-2,2v10.6c0,1.1,0.9,2,2,2h10.6c1.1,0,2-0.9,2-2V35.5C81.4,34.4,80.5,33.5,79.4,33.5z
		 M77.4,44.1h-6.6v-6.6h6.6V44.1z"/>
	<path d="M31.1,53.4H20.5c-1.1,0-2,0.9-2,2V66c0,1.1,0.9,2,2,2h10.6c1.1,0,2-0.9,2-2V55.4C33.1,54.3,32.2,53.4,31.1,53.4z M29.1,64
		h-6.6v-6.6h6.6V64z"/>
	<path d="M55.2,53.4H44.6c-1.1,0-2,0.9-2,2V66c0,1.1,0.9,2,2,2h10.6c1.1,0,2-0.9,2-2V55.4C57.2,54.3,56.3,53.4,55.2,53.4z M53.2,64
		h-6.6v-6.6h6.6V64z"/>
	<path d="M79.4,53.4H68.8c-1.1,0-2,0.9-2,2V66c0,1.1,0.9,2,2,2h10.6c1.1,0,2-0.9,2-2V55.4C81.4,54.3,80.5,53.4,79.4,53.4z M77.4,64
		h-6.6v-6.6h6.6V64z"/>
	<path d="M31.1,73.2H20.5c-1.1,0-2,0.9-2,2v10.6c0,1.1,0.9,2,2,2h10.6c1.1,0,2-0.9,2-2V75.2C33.1,74.1,32.2,73.2,31.1,73.2z
		 M29.1,83.8h-6.6v-6.6h6.6V83.8z"/>
	<path d="M55.2,73.2H44.6c-1.1,0-2,0.9-2,2v10.6c0,1.1,0.9,2,2,2h10.6c1.1,0,2-0.9,2-2V75.2C57.2,74.1,56.3,73.2,55.2,73.2z
		 M53.2,83.8h-6.6v-6.6h6.6V83.8z"/>
	<path d="M79.4,73.2H68.8c-1.1,0-2,0.9-2,2v10.6c0,1.1,0.9,2,2,2h10.6c1.1,0,2-0.9,2-2V75.2C81.4,74.1,80.5,73.2,79.4,73.2z
		 M77.4,83.8h-6.6v-6.6h6.6V83.8z"/>
</g>
</svg>
