<?xml version="1.0" encoding="utf-8"?>
<!-- Generator: Adobe Illustrator 16.0.4, SVG Export Plug-In . SVG Version: 6.00 Build 0)  -->
<!DOCTYPE svg PUBLIC "-//W3C//DTD SVG 1.1//EN" "http://www.w3.org/Graphics/SVG/1.1/DTD/svg11.dtd">
<svg version="1.1" id="Layer_1" xmlns="http://www.w3.org/2000/svg" xmlns:xlink="http://www.w3.org/1999/xlink" x="0px" y="0px"
	 width="100px" height="100px" viewBox="0 0 100 100" enable-background="new 0 0 100 100" xml:space="preserve">
<g>
	<path fill="#FFFFFF" d="M82.926,7.497h-8.084V2.294c0-1.104-0.896-2-2-2s-2,0.896-2,2v5.203H27.895V2.294c0-1.104-0.896-2-2-2
		s-2,0.896-2,2v5.203h-6.957c-7.048,0-12.783,5.734-12.783,12.783v66.843c0,7.049,5.734,12.783,12.783,12.783h65.987
		c7.049,0,12.783-5.734,12.783-12.783V20.28C95.709,13.231,89.975,7.497,82.926,7.497z M16.938,11.497h6.957v3.357
		c0,1.104,0.896,2,2,2s2-0.896,2-2v-3.357h42.947v3.357c0,1.104,0.896,2,2,2s2-0.896,2-2v-3.357h8.084
		c4.843,0,8.783,3.94,8.783,8.783v1.667H8.156V20.28C8.156,15.437,12.096,11.497,16.938,11.497z M82.926,95.906H16.938
		c-4.843,0-8.783-3.94-8.783-8.783V25.947h83.553v61.176C91.709,91.966,87.769,95.906,82.926,95.906z"/>
	<path fill="#FFFFFF" d="M31.054,33.532H20.485c-1.104,0-2,0.896-2,2v10.569c0,1.104,0.896,2,2,2h10.569c1.104,0,2-0.896,2-2V35.532
		C33.054,34.427,32.158,33.532,31.054,33.532z M29.054,44.101h-6.569v-6.569h6.569V44.101z"/>
	<path fill="#FFFFFF" d="M55.217,33.532H44.648c-1.104,0-2,0.896-2,2v10.569c0,1.104,0.896,2,2,2h10.569c1.104,0,2-0.896,2-2V35.532
		C57.217,34.427,56.321,33.532,55.217,33.532z M53.217,44.101h-6.569v-6.569h6.569V44.101z"/>
	<path fill="#FFFFFF" d="M79.38,33.532H68.811c-1.104,0-2,0.896-2,2v10.569c0,1.104,0.896,2,2,2H79.38c1.104,0,2-0.896,2-2V35.532
		C81.38,34.427,80.484,33.532,79.38,33.532z M77.38,44.101h-6.569v-6.569h6.569V44.101z"/>
	<path fill="#FFFFFF" d="M31.054,53.391H20.485c-1.104,0-2,0.896-2,2v10.568c0,1.104,0.896,2,2,2h10.569c1.104,0,2-0.896,2-2V55.391
		C33.054,54.286,32.158,53.391,31.054,53.391z M29.054,63.959h-6.569v-6.568h6.569V63.959z"/>
	<path fill="#FFFFFF" d="M55.217,53.391H44.648c-1.104,0-2,0.896-2,2v10.568c0,1.104,0.896,2,2,2h10.569c1.104,0,2-0.896,2-2V55.391
		C57.217,54.286,56.321,53.391,55.217,53.391z M53.217,63.959h-6.569v-6.568h6.569V63.959z"/>
	<path fill="#FFFFFF" d="M79.38,53.391H68.811c-1.104,0-2,0.896-2,2v10.568c0,1.104,0.896,2,2,2H79.38c1.104,0,2-0.896,2-2V55.391
		C81.38,54.286,80.484,53.391,79.38,53.391z M77.38,63.959h-6.569v-6.568h6.569V63.959z"/>
	<path fill="#FFFFFF" d="M31.054,73.249H20.485c-1.104,0-2,0.896-2,2v10.568c0,1.104,0.896,2,2,2h10.569c1.104,0,2-0.896,2-2V75.249
		C33.054,74.145,32.158,73.249,31.054,73.249z M29.054,83.817h-6.569v-6.568h6.569V83.817z"/>
	<path fill="#FFFFFF" d="M55.217,73.249H44.648c-1.104,0-2,0.896-2,2v10.568c0,1.104,0.896,2,2,2h10.569c1.104,0,2-0.896,2-2V75.249
		C57.217,74.145,56.321,73.249,55.217,73.249z M53.217,83.817h-6.569v-6.568h6.569V83.817z"/>
	<path fill="#FFFFFF" d="M79.38,73.249H68.811c-1.104,0-2,0.896-2,2v10.568c0,1.104,0.896,2,2,2H79.38c1.104,0,2-0.896,2-2V75.249
		C81.38,74.145,80.484,73.249,79.38,73.249z M77.38,83.817h-6.569v-6.568h6.569V83.817z"/>
</g>
</svg>
