<?xml version="1.0" encoding="utf-8"?>
<!-- Generator: Adobe Illustrator 23.0.3, SVG Export Plug-In . SVG Version: 6.00 Build 0)  -->
<svg version="1.1" id="Layer_1" xmlns="http://www.w3.org/2000/svg" xmlns:xlink="http://www.w3.org/1999/xlink" x="0px" y="0px"
	 viewBox="0 0 100 100" style="enable-background:new 0 0 100 100;" xml:space="preserve">
<g>
	<path d="M12.1,50c0-20.9,17-37.9,37.9-37.9c8.5,0,16.6,2.8,23.2,8H58.5c-1.1,0-2,0.9-2,2s0.9,2,2,2h19.7c1.1,0,2-0.9,2-2V2.4
		c0-1.1-0.9-2-2-2s-2,0.9-2,2v14.9c-7.4-6-16.5-9.2-26.2-9.2C26.9,8.1,8.1,26.9,8.1,50c0,6.1,1.3,12,3.8,17.6
		c0.3,0.7,1.1,1.2,1.8,1.2c0.3,0,0.6-0.1,0.8-0.2c1-0.5,1.4-1.7,1-2.7C13.3,60.9,12.1,55.6,12.1,50z"/>
	<path d="M88,32.5c-0.5-1-1.7-1.4-2.7-1c-1,0.5-1.4,1.7-1,2.7c2.3,5,3.5,10.3,3.5,15.9c0,20.9-17,37.9-37.9,37.9
		c-8.5,0-16.6-2.8-23.2-7.9h14.8c1.1,0,2-0.9,2-2s-0.9-2-2-2H21.8c-1.1,0-2,0.9-2,2v0.3c0,0,0,0,0,0v19.4c0,1.1,0.9,2,2,2s2-0.9,2-2
		v-15c7.4,5.9,16.5,9.2,26.2,9.2c23.1,0,41.9-18.8,41.9-41.9C91.9,43.9,90.6,38,88,32.5z"/>
</g>
</svg>
