<?xml version="1.0" encoding="utf-8"?>
<!-- Generator: Adobe Illustrator 16.0.4, SVG Export Plug-In . SVG Version: 6.00 Build 0)  -->
<!DOCTYPE svg PUBLIC "-//W3C//DTD SVG 1.1//EN" "http://www.w3.org/Graphics/SVG/1.1/DTD/svg11.dtd">
<svg version="1.1" id="Layer_1" xmlns="http://www.w3.org/2000/svg" xmlns:xlink="http://www.w3.org/1999/xlink" x="0px" y="0px"
	 width="100px" height="100px" viewBox="0 0 100 100" enable-background="new 0 0 100 100" xml:space="preserve">
<g>
	<path fill="#FFFFFF" d="M99.833,55.076c0-2.753-2.239-4.992-4.991-4.992H59.146c-1.229-2.584-4.553-12.156-0.861-20.039
		c0.924,0.863,2.146,1.355,3.413,1.355c0.638,0,1.288-0.125,1.914-0.386l7.552-3.147l0,0l8.271-3.446
		c0.003-0.001,0.006-0.003,0.009-0.005l5.669-2.362c2.54-1.057,3.746-3.985,2.688-6.527L82.683,3.241
		c-1.06-2.542-3.987-3.749-6.528-2.689l-21.503,8.96c-1.23,0.512-2.188,1.474-2.694,2.708c-0.508,1.231-0.506,2.589,0.008,3.82
		l2.745,6.589c-5.042,3.27-20.072,14.943-21.338,27.455H4.993C2.24,50.084,0,52.323,0,55.076c0,2.23,1.48,4.101,3.503,4.739
		C6.663,82.81,26.393,100,49.917,100c23.525,0,43.254-17.19,46.415-40.185C98.353,59.177,99.833,57.306,99.833,55.076z
		 M71.421,24.155L65.021,8.796l5.197-2.166l6.399,15.36l-0.421,0.175L71.421,24.155z M77.434,3.624
		c0.209-0.087,0.425-0.127,0.638-0.127c0.651,0,1.273,0.385,1.539,1.023l5.119,12.288c0.354,0.847-0.049,1.823-0.896,2.176
		l-4.143,1.726l-6.4-15.36L77.434,3.624z M55.033,13.487c0.168-0.411,0.488-0.734,0.898-0.903l6.019-2.508l6.398,15.359
		l-6.018,2.507c-0.844,0.353-1.821-0.048-2.177-0.896L55.035,14.76C54.865,14.349,54.863,13.896,55.033,13.487z M55.997,25.717
		l0.381,0.913c-5.2,8.307-2.849,18.514-0.846,23.454H36.709C37.988,39.669,50.754,29.122,55.997,25.717z M49.917,96.673
		c-21.614,0-39.792-15.609-43.027-36.605h86.055C89.708,81.063,71.531,96.673,49.917,96.673z M94.842,56.74L94.842,56.74H4.993
		c-0.917,0-1.664-0.746-1.664-1.664s0.747-1.664,1.664-1.664h29.949h23.294h36.605c0.917,0,1.664,0.746,1.664,1.664
		S95.759,56.74,94.842,56.74z"/>
	<path fill="#FFFFFF" d="M13.664,70.768c5.301,10.955,15.612,19.047,27.582,21.651c0.119,0.024,0.238,0.036,0.355,0.036
		c0.765,0,1.456-0.53,1.624-1.312c0.194-0.896-0.375-1.783-1.273-1.98C30.973,86.779,21.519,79.36,16.66,69.318
		c-0.399-0.827-1.396-1.167-2.223-0.773C13.61,68.946,13.265,69.941,13.664,70.768z"/>
</g>
</svg>
