<?xml version="1.0" encoding="utf-8"?>
<!-- Generator: Adobe Illustrator 16.0.4, SVG Export Plug-In . SVG Version: 6.00 Build 0)  -->
<!DOCTYPE svg PUBLIC "-//W3C//DTD SVG 1.1//EN" "http://www.w3.org/Graphics/SVG/1.1/DTD/svg11.dtd">
<svg version="1.1" id="Layer_1" xmlns="http://www.w3.org/2000/svg" xmlns:xlink="http://www.w3.org/1999/xlink" x="0px" y="0px"
	 width="100px" height="100px" viewBox="0 0 100 100" enable-background="new 0 0 100 100" xml:space="preserve">
<g id="Layer_1_1_">
	<path fill="#FFFFFF" d="M86.4,0C79.3,0,73.5,5.4,72.8,12.3c-6.2,0.9-11,6.2-11,12.7c0,1,0.8,1.9,1.9,1.9h21.8c1,0,1.9-0.9,1.9-1.9
		c0-6.4-4.7-11.7-10.801-12.6C77.2,7.6,81.4,3.9,86.3,3.9c5.4,0,9.8,4.4,9.8,9.9v41.9H39.6v-0.3c0-1-0.8-1.9-1.9-1.9H19.6
		c-1,0-1.9,0.8-1.9,1.9v0.3H1.9c-0.6,0-1.1,0.2-1.5,0.7s-0.5,1-0.4,1.6l3.6,17.6V75.7c1.7,6.2,5.1,11.5,9.7,15.6l-3.6,6
		C9.2,98.2,9.5,99.4,10.4,99.9c0.3,0.199,0.6,0.3,1,0.3c0.6,0,1.3-0.3,1.6-0.9l3.3-5.6C21.6,97.4,28,99.6,34.8,99.6h30.3
		c7.101,0,13.801-2.3,19.2-6.399l3.601,6.1c0.399,0.601,1,0.9,1.6,0.9c0.3,0,0.7-0.101,1-0.3c0.9-0.5,1.2-1.7,0.7-2.601l-3.7-6.2
		c-0.1-0.1-0.2-0.199-0.3-0.3c4.3-4,7.5-9.1,9.1-15.1V75.6L99.9,58c0,0,0,0,0-0.1c0-0.101,0-0.2,0-0.301v-44C100,6.1,93.9,0,86.4,0z
		 M83.5,23.1H65.8c0.9-4.1,4.5-7.1,8.8-7.1C78.9,16,82.6,19,83.5,23.1z M21.5,57.1h14.3V74.7H21.5V57.1z M4.2,59.3h13.5v6.9H5.6
		L4.2,59.3z M92.7,74.6C89.3,87,78,95.6,65.1,95.6H34.9c-12.8,0-24.2-8.6-27.6-21L6.4,70h11.4v6.5c0,1,0.9,1.9,1.9,1.9h18.1
		c1,0,1.9-0.801,1.9-1.9V70h54L92.7,74.6z M94.4,66.2H39.6v-6.9h56.2L94.4,66.2z"/>
</g>
</svg>
