<?xml version="1.0" encoding="utf-8"?>
<!-- Generator: Adobe Illustrator 16.0.4, SVG Export Plug-In . SVG Version: 6.00 Build 0)  -->
<!DOCTYPE svg PUBLIC "-//W3C//DTD SVG 1.1//EN" "http://www.w3.org/Graphics/SVG/1.1/DTD/svg11.dtd">
<svg version="1.1" id="Layer_1" xmlns="http://www.w3.org/2000/svg" xmlns:xlink="http://www.w3.org/1999/xlink" x="0px" y="0px"
	 width="100px" height="100px" viewBox="0 0 100 100" enable-background="new 0 0 100 100" xml:space="preserve">
<g id="Layer_1_1_">
	<g>
		<path fill="#FFFFFF" d="M57.1,67.8c6-4.3,9.601-11.2,9.601-18.6v-4c0-1.1-0.9-2-2-2H30h-4.9l3.8-40.6c0.1-1-0.6-2-1.6-2.2
			C25.9,0.1,24.5,0,23,0C10.4,0,0,10.3,0,23c0,11.9,9.1,21.7,20.6,22.9v3.3C20.6,57.4,25,65,32.2,69.1L28,79.4l-2,5
			c-4.3,0.1-7.7,3.699-7.5,8c0.1,4.3,3.7,7.699,8,7.5c4.3-0.101,7.7-3.7,7.5-8C33.9,89.1,32.3,86.6,29.9,85.3l1.3-3.2h26.7
			L63.6,98.4c0.301,0.8,1,1.3,1.9,1.3c0.2,0,0.4,0,0.7-0.101c1-0.399,1.6-1.5,1.2-2.5L57.1,67.8z M30.1,92.9c-0.4,1.8-1.9,3-3.7,3
			c-2.1,0-3.8-1.7-3.8-3.801c0-2.1,1.7-3.8,3.8-3.8c0.3,0,0.5,0,0.8,0.101l0,0C29.2,88.8,30.5,90.9,30.1,92.9z M4,23
			C4,12.5,12.6,4,23,4c0.6,0,1.2,0,1.8,0.1l-3.6,37.8C11.6,41,4,32.9,4,23z M24.6,49.1V47h38.1v2.1c0,10.5-8.5,19-19,19
			C33.1,68.2,24.6,59.7,24.6,49.1z M32.8,78.2l3-7.4C41.6,72.9,48,72.6,53.5,69.9l2.9,8.3H32.8z"/>
		<path fill="#FFFFFF" d="M81,0H70.5c-1.1,0-2,0.9-2,2v13.8c0,1.1,0.9,2,2,2h3.2v33.4c0,1.1,0.899,2,2,2c1.1,0,2-0.9,2-2V17.8H81
			c1.1,0,2-0.9,2-2V2C83,0.9,82.1,0,81,0z M79,13.8h-6.5V4H79V13.8z"/>
		<path fill="#FFFFFF" d="M98,0c-1.1,0-2,0.9-2,2v9c0,1-0.5,1.9-1.2,2.5V2c0-1.1-0.899-2-2-2c-1.1,0-2,0.9-2,2v11.6
			C90,13,89.5,12.1,89.5,11V2c0-1.1-0.9-2-2-2s-2,0.9-2,2v9c0,3.3,2.2,6.1,5.2,6.9v33.2c0,1.101,0.899,2,2,2c1.1,0,2-0.899,2-2V18
			c3-0.9,5.2-3.7,5.2-7V2C100,0.9,99.1,0,98,0z"/>
	</g>
</g>
</svg>
