<?xml version="1.0" encoding="utf-8"?>
<!-- Generator: Adobe Illustrator 16.0.4, SVG Export Plug-In . SVG Version: 6.00 Build 0)  -->
<!DOCTYPE svg PUBLIC "-//W3C//DTD SVG 1.1//EN" "http://www.w3.org/Graphics/SVG/1.1/DTD/svg11.dtd">
<svg version="1.1" id="Layer_1" xmlns="http://www.w3.org/2000/svg" xmlns:xlink="http://www.w3.org/1999/xlink" x="0px" y="0px"
	 width="100px" height="100px" viewBox="0 0 100 100" enable-background="new 0 0 100 100" xml:space="preserve">
<g id="Layer_1_1_">
	<path fill="#FFFFFF" d="M93,52.9V6c0-3.3-2.7-6-6-6H13C9.7,0,7,2.7,7,6v46.9c-4.2,1.3-7,5.199-7,9.5v22.1c0,2.2,1.8,4,4,4h2.4V96
		c0,2.2,1.8,4,4,4h6c2.2,0,4-1.8,4-4v-7.6h59.1V96c0,2.2,1.8,4,4,4h6c2.2,0,4-1.8,4-4v-7.6H96c2.2,0,4-1.801,4-4v-22
		C100,58,97.2,54.2,93,52.9z M11,6c0-1.1,0.9-2,2-2h74c1.1,0,2,0.9,2,2v46.3h-5.6c0.199-0.6,0.399-1.3,0.399-2V39.1c0-3.3-2.7-6-6-6
		H57.2c-3.3,0-6,2.7-6,6v11.2c0,0.7,0.1,1.4,0.399,2h-3.2c0.2-0.6,0.4-1.3,0.4-2V39.1c0-3.3-2.7-6-6-6H22.2c-3.3,0-6,2.7-6,6v11.2
		c0,0.7,0.1,1.4,0.4,2H11V6z M55.2,50.3V39.1c0-1.1,0.899-2,2-2h20.6c1.101,0,2,0.9,2,2v11.2c0,1.101-0.899,2-2,2H57.2
		C56.1,52.4,55.2,51.5,55.2,50.3z M20.2,50.3V39.1c0-1.1,0.9-2,2-2h20.6c1.1,0,2,0.9,2,2v11.2c0,1.101-0.9,2-2,2H22.2
		C21.1,52.4,20.2,51.5,20.2,50.3L20.2,50.3z M16.4,96h-6v-7.6h6V96z M89.6,96h-6v-7.6h6V96z M96,84.4H4V75.8h92V84.4z M4,71.8v-9.5
		c0-3.3,2.7-6,6-6h80c3.3,0,6,2.7,6,6v9.5H4z"/>
</g>
</svg>
