<?xml version="1.0" encoding="utf-8"?>
<!-- Generator: Adobe Illustrator 16.0.4, SVG Export Plug-In . SVG Version: 6.00 Build 0)  -->
<!DOCTYPE svg PUBLIC "-//W3C//DTD SVG 1.1//EN" "http://www.w3.org/Graphics/SVG/1.1/DTD/svg11.dtd">
<svg version="1.1" id="Layer_1" xmlns="http://www.w3.org/2000/svg" xmlns:xlink="http://www.w3.org/1999/xlink" x="0px" y="0px"
	 width="100px" height="100px" viewBox="0 0 100 100" enable-background="new 0 0 100 100" xml:space="preserve">
<g id="Layer_1_1_">
	<g>
		<path fill="#FFFFFF" d="M44.4,21.7c2.1-2.3,1.9-6-0.5-8c-2.3-2.1-6-1.9-8,0.5c-2.1,2.4-1.9,6,0.5,8C38.7,24.3,42.3,24.1,44.4,21.7
			z"/>
		<path fill="#FFFFFF" d="M83.8,46.1c-0.7,0.8-0.6,1.9,0.2,2.6l9.5,8.399c0.3,0.301,0.8,0.5,1.2,0.5c0.5,0,1-0.199,1.399-0.6
			c0.7-0.8,0.601-1.9-0.199-2.6L86.4,46C85.7,45.3,84.5,45.3,83.8,46.1z"/>
		<path fill="#FFFFFF" d="M82.4,54.4C81.7,55.2,81.8,56.3,82.6,57L95.9,68.8c0.3,0.3,0.8,0.5,1.199,0.5c0.5,0,1-0.2,1.4-0.6
			c0.7-0.8,0.6-1.9-0.2-2.601L85,54.2C84.2,53.6,83.1,53.6,82.4,54.4z"/>
		<path fill="#FFFFFF" d="M75.7,58.6C75,59.4,75.1,60.5,75.9,61.2l7.199,6.3C83.4,67.8,83.9,68,84.3,68c0.5,0,1-0.2,1.4-0.6
			c0.7-0.801,0.6-1.9-0.2-2.601l-7.2-6.3C77.6,57.8,76.4,57.8,75.7,58.6z"/>
		<path fill="#FFFFFF" d="M99,95.9c-0.3-0.801-7.6-19-42-14.2c-5,0.7-9.7,2.3-14.2,3.899c-9.6,3.4-18,6.2-28.2,0.5
			C8.4,82.6,6.2,77.6,5.4,74c-1-4.4-0.3-8.9,0.9-11.8c1.9,1.5,4.3,2.3,6.7,2.3l0,0c3.1,0,6.1-1.4,8.2-3.7L40.5,39l14.1,10.7L64.1,62
			c0.4,0.5,0.9,0.8,1.5,0.8c0.601,0,1.2-0.2,1.601-0.7l20.1-22.7c0.4-0.4,0.601-1,0.5-1.6c-0.1-0.6-0.399-1.1-0.899-1.4l-13.301-8
			L56.7,10.1c-1.5-1.9-3.101-3.7-4.9-5.3C48.5,2,44.4,0.5,40.2,0.5c-5,0-9.8,2.2-13.1,5.9c-4.4,5-5.6,12-3.1,18.2L4.7,46.3
			C1.6,49.9,1.2,55,3.4,59c-2.1,3.6-3.3,9.8-2,15.9c1,4.399,3.7,10.6,11.2,14.8c11.8,6.6,21.8,3.1,31.5-0.2
			c4.3-1.5,8.8-3.1,13.5-3.7c31-4.3,37.5,11,37.7,11.601c0.3,0.8,1.101,1.3,1.9,1.3c0.2,0,0.5,0,0.7-0.101
			C98.8,98.1,99.4,97,99,95.9z M65.7,57.6l-7.2-9.2l14.1-15.9l10,6L65.7,57.6z M7.7,49l20.1-22.7c0.5-0.6,0.7-1.5,0.3-2.2
			c-2.5-4.9-1.7-10.8,1.9-15c2.6-2.9,6.2-4.6,10.1-4.6c3.3,0,6.4,1.2,8.9,3.4c1.6,1.4,3.1,3.1,4.5,4.8c0,0.1,0.1,0.1,0.1,0.1
			L69.5,30L55.7,45.6L41.4,34.7c-0.8-0.6-2-0.5-2.7,0.3L18.2,58.2C16.9,59.7,15,60.6,13,60.6l0,0c-1.7,0-3.3-0.6-4.6-1.699
			C5.5,56.3,5.2,51.8,7.7,49z"/>
	</g>
</g>
</svg>
