<?xml version="1.0" encoding="utf-8"?>
<!-- Generator: Adobe Illustrator 16.0.4, SVG Export Plug-In . SVG Version: 6.00 Build 0)  -->
<!DOCTYPE svg PUBLIC "-//W3C//DTD SVG 1.1//EN" "http://www.w3.org/Graphics/SVG/1.1/DTD/svg11.dtd">
<svg version="1.1" id="Layer_1" xmlns="http://www.w3.org/2000/svg" xmlns:xlink="http://www.w3.org/1999/xlink" x="0px" y="0px"
	 width="100px" height="100px" viewBox="0 0 100 100" enable-background="new 0 0 100 100" xml:space="preserve">
<g id="Layer_1_1_">
	<g>
		<path fill="#FFFFFF" d="M98,76.5h-3V36.8c0-1.1-0.9-2-2-2c-2.2,0-4-1.8-4-4c0-2.2,1.8-4,4-4c1.1,0,2-0.9,2-2v-2
			C95,15.1,97.2,0,81.2,0c-63.9,0-58.6,0-59,0.1C10.1,0.8,5,6.7,5,13.9v14.9c0,1.1,0.9,2,2,2c2.2,0,4,1.8,4,4c0,2.2-1.8,4-4,4
			c-1.1,0-2,0.9-2,2v35.9H2c-1.1,0-2,0.899-2,2V98c0,1.3,1,2,2,2h96c1.2,0,2-0.9,2-2V78.5C100,77.4,99.1,76.5,98,76.5z M43.4,48
			v-7.7c0-1.1-0.9-2-2-2c-2.2,0-4-1.8-4-4c0-2.2,1.8-4,4-4c1.1,0,2-0.9,2-2v-2c0-1.3,0-1.5-0.1-2.7v-0.7l0,0v-9.2
			c0-3.9-2.7-7.4-7-9.9h5c0.8,0,8,0.4,8,9.9v2.9l0,0c0,1.1,0.9,2,2,2c1.101,0,2-0.9,2-2v-2.9c0.2-3.6-1-7.1-3.3-9.9h5.2
			c1.399,0.1,4,2.3,4,9.9v2.9l0,0c0,1.1,0.899,2,2,2c1.1,0,2-0.9,2-2c0-0.1,0-0.2,0-0.2v-2.7c0.2-3.4-0.601-6.9-2.101-9.9H65.2
			c1.399,0.1,4,2.3,4,9.9v3h0.1c0,1.1,0.9,2,2,2c1.101,0,2-0.9,2-2c0-0.1,0-0.2,0-0.4v-2.6c0.2-3.4-0.6-6.9-2.1-9.9h4.1
			c1.4,0.1,4,2.3,4,9.9v2.9l0,0c0,0.1,0,0.2,0,0.2c0,1.1,0.9,2,2,2c1.101,0,2-0.9,2-2c0-0.1,0-0.2,0-0.2l0,0v-2.9
			c0-3.2-0.7-6.7-2.3-9.7h0.1C93,4,91,17.5,91,22.9v0.3c-4.2,1.1-6.8,5.4-5.7,9.7c0.7,2.8,2.9,5,5.7,5.7v38H43.4V48 M39.5,48v28.5
			H8.9V42.4c4.2-1.1,6.8-5.4,5.7-9.7c-0.7-2.8-2.9-5-5.7-5.7V13.9c0-4.9,3.9-9.2,13.3-9.8c9.6,0.7,17.2,4.9,17.2,9.8v9.7h0.1l0,0
			c0.1,1.2,0,1.5,0,2.8v0.3c-4.2,1.1-6.8,5.4-5.7,9.7c0.7,2.8,2.9,5,5.7,5.7V48 M96,96H4V80.5h92V96z"/>
		<path fill="#FFFFFF" d="M35.4,17.1c0-0.1,0-0.2,0-0.2l0,0v-0.1c0-0.2-0.1-0.3-0.1-0.5c-0.5-1.7-1.3-3.2-2.5-4.6
			C28.2,7,19.8,7.9,19.4,8l0,0l0,0c-1.1,0-2,0.9-2,2s0.9,2,2,2c0.2,0,0.3,0,0.5-0.1l0,0c0.1,0,6.8-0.7,10,2.5
			c0.6,0.7,1.1,1.5,1.4,2.4l0,0c0,0.1,0,0.2,0,0.2c0,1.1,0.9,2.1,2.1,2.1C34.6,19.1,35.4,18.2,35.4,17.1z"/>
	</g>
</g>
</svg>
