<?xml version="1.0" encoding="utf-8"?>
<!-- Generator: Adobe Illustrator 16.0.4, SVG Export Plug-In . SVG Version: 6.00 Build 0)  -->
<!DOCTYPE svg PUBLIC "-//W3C//DTD SVG 1.1//EN" "http://www.w3.org/Graphics/SVG/1.1/DTD/svg11.dtd">
<svg version="1.1" id="Layer_1" xmlns="http://www.w3.org/2000/svg" xmlns:xlink="http://www.w3.org/1999/xlink" x="0px" y="0px"
	 width="100px" height="100px" viewBox="0 0 100 100" enable-background="new 0 0 100 100" xml:space="preserve">
<g id="Layer_1_1_">
	<g>
		<path fill="#FFFFFF" d="M66.8,66.3c-1,0-2-0.3-2.899-0.8l-18.5-11c-0.6-0.4-1-1-1-1.7V24.2c0-3.1,2.5-5.6,5.6-5.6
			c3.1,0,5.6,2.5,5.6,5.6v23.3l14,8.3c1.301,0.8,2.2,2,2.601,3.4c0.399,1.5,0.2,3-0.601,4.2C70.6,65.2,68.7,66.3,66.8,66.3z
			 M48.4,51.6L66,62c0.8,0.5,1.8,0.2,2.2-0.6c0.2-0.4,0.3-0.801,0.2-1.2c-0.101-0.4-0.4-0.8-0.7-1l-15-8.9c-0.601-0.4-1-1-1-1.7
			V24.2c0-0.9-0.7-1.6-1.6-1.6s-1.6,0.7-1.6,1.6V51.6H48.4z"/>
		<path fill="#FFFFFF" d="M50,0.4C22.6,0.4,0.4,22.6,0.4,50c0,27.4,22.2,49.6,49.6,49.6C77.4,99.6,99.6,77.4,99.6,50
			C99.6,22.6,77.4,0.4,50,0.4z M50,95.6C24.8,95.6,4.4,75.2,4.4,50S24.8,4.4,50,4.4S95.6,24.8,95.6,50S75.2,95.6,50,95.6z"/>
	</g>
</g>
</svg>
