<?xml version="1.0" encoding="utf-8"?>
<!-- Generator: Adobe Illustrator 16.0.4, SVG Export Plug-In . SVG Version: 6.00 Build 0)  -->
<!DOCTYPE svg PUBLIC "-//W3C//DTD SVG 1.1//EN" "http://www.w3.org/Graphics/SVG/1.1/DTD/svg11.dtd">
<svg version="1.1" id="Layer_1" xmlns="http://www.w3.org/2000/svg" xmlns:xlink="http://www.w3.org/1999/xlink" x="0px" y="0px"
	 width="100px" height="100px" viewBox="0 0 100 100" enable-background="new 0 0 100 100" xml:space="preserve">
<g id="Layer_1_1_">
	<g>
		<path fill="#FFFFFF" d="M50,0.4C22.6,0.4,0.4,22.6,0.4,50c0,27.4,22.2,49.6,49.6,49.6C77.4,99.6,99.6,77.4,99.6,50
			C99.6,22.6,77.4,0.4,50,0.4z M50,95.6C24.8,95.6,4.4,75.2,4.4,50S24.8,4.4,50,4.4S95.6,24.8,95.6,50S75.2,95.6,50,95.6z"/>
		<path fill="#FFFFFF" d="M50,16.2c-3.1,0-5.6,2.5-5.6,5.6v6.1c-0.7-0.3-1.3-0.4-2.1-0.4c-0.8,0-1.6,0.2-2.3,0.5
			c-2.8,1.3-4.1,4.6-2.8,7.4l7.7,17.2V52.7c0.1,0.2,0.2,0.399,0.3,0.5c0,0.1,0.1,0.1,0.1,0.2c0.1,0.199,0.3,0.399,0.4,0.5
			c0,0.1,0.1,0.1,0.1,0.199c0.1,0.101,0.2,0.301,0.4,0.4c0,0,0.1,0.1,0.2,0.1c0.2,0.101,0.4,0.301,0.5,0.4c0.1,0,0.1,0,0.1,0
			c0.2,0.1,0.3,0.2,0.5,0.3c0,0,0.1,0,0.1,0.101c0.2,0.1,0.4,0.199,0.7,0.3h0.1c0.2,0.1,0.4,0.1,0.6,0.1c0.1,0,0.1,0,0.2,0
			c0.2,0,0.5,0,0.7,0.101l0,0c0.3,0,0.6,0,0.9-0.101c0.101,0,0.101,0,0.2,0s0.2,0,0.3-0.1c0.101,0,0.2,0,0.3-0.101
			c0.101,0,0.101-0.1,0.2-0.1c0.101,0,0.2-0.1,0.3-0.1c0,0,0,0,0.101,0c0.1,0,0.1-0.101,0.2-0.101c0.1,0,0.199-0.1,0.199-0.1
			C52.7,55.1,52.8,55.1,52.9,55c0.1,0,0.1-0.1,0.199-0.1C53.2,54.8,53.3,54.8,53.4,54.7l0.1-0.101c0.1-0.1,0.2-0.199,0.3-0.3
			l0.101-0.1C54,54.1,54.1,54,54.1,53.9c0-0.101,0.101-0.101,0.101-0.2c0.1-0.101,0.1-0.2,0.2-0.2c0.1-0.1,0.1-0.2,0.199-0.2
			c0-0.1,0.101-0.1,0.101-0.2c0.1-0.1,0.1-0.199,0.2-0.3c0,0,0-0.1,0.1-0.1c0.1-0.101,0.1-0.2,0.2-0.4v-0.1c0-0.101,0.1-0.3,0.1-0.4
			v-0.1c0-0.101,0.101-0.3,0.101-0.4c0-0.1,0-0.1,0-0.2c0-0.1,0-0.199,0-0.399c0-0.101,0-0.2,0-0.2c0-0.1,0-0.2,0-0.2V21.8
			C55.6,18.7,53.1,16.2,50,16.2z M51.6,50.3v0.1v0.1c0,0.1,0,0.1-0.1,0.2v0.1c0,0.101-0.1,0.101-0.1,0.2c0,0,0,0.1-0.101,0.1
			L51.2,51.2L51.1,51.3L51,51.4l-0.1,0.1L50.8,51.6c0,0-0.1,0-0.1,0.101l0,0c-0.101,0-0.101,0.1-0.2,0.1c0,0,0,0-0.1,0s-0.2,0-0.3,0
			c-0.5,0-1-0.3-1.3-0.6l0,0c0-0.101-0.1-0.101-0.1-0.2c0,0,0-0.1-0.1-0.1l-7.7-17.2c-0.4-0.8,0-1.8,0.8-2.1
			c0.2-0.1,0.4-0.1,0.7-0.1c0.6,0,1.2,0.4,1.5,1l4.6,10.3v-21c0-0.9,0.7-1.6,1.6-1.6s1.6,0.7,1.6,1.6v28.5H51.6z"/>
	</g>
</g>
</svg>
