<?xml version="1.0" encoding="utf-8"?>
<!-- Generator: Adobe Illustrator 16.0.4, SVG Export Plug-In . SVG Version: 6.00 Build 0)  -->
<!DOCTYPE svg PUBLIC "-//W3C//DTD SVG 1.1//EN" "http://www.w3.org/Graphics/SVG/1.1/DTD/svg11.dtd">
<svg version="1.1" id="Layer_1" xmlns="http://www.w3.org/2000/svg" xmlns:xlink="http://www.w3.org/1999/xlink" x="0px" y="0px"
	 width="100px" height="100px" viewBox="0 0 100 100" enable-background="new 0 0 100 100" xml:space="preserve">
<g id="Layer_1_1_">
	<g>
		<path fill="#FFFFFF" d="M39,22.9c1.2,0,2.1-0.9,2.1-2.1V2.1C41.1,0.9,40.2,0,39,0s-2.1,0.9-2.1,2.1v18.7
			C36.9,22,37.9,22.9,39,22.9z"/>
		<path fill="#FFFFFF" d="M48.8,24.8c1.2,0,2.101-0.9,2.101-2.1V4c0-1.1-0.9-2.1-2.101-2.1c-1.2,0-2.1,0.9-2.1,2.1v18.7
			C46.7,23.9,47.6,24.8,48.8,24.8z"/>
		<path fill="#FFFFFF" d="M59,22.9c1.2,0,2.1-0.9,2.1-2.1V2.1c0-1.2-1-2.1-2.1-2.1c-1.2,0-2.1,0.9-2.1,2.1v18.7
			C56.9,22,57.8,22.9,59,22.9z"/>
		<path fill="#FFFFFF" d="M91.2,50.8c-0.5,0-1.101,0-1.601,0H85.4V34.7c0-1.2-0.9-2.1-2.101-2.1H11.5c-1.2,0-2.1,0.9-2.1,2.1V85.1
			c0,4.101,1.7,7.9,4.6,10.7H2.1C0.9,95.8,0,96.7,0,97.9C0,99.1,0.9,100,2.1,100h95.8c1.199,0,2.1-0.9,2.1-2.1
			c0-1.2-0.9-2.101-2.1-2.101H80.7c2.899-2.8,4.6-6.7,4.6-10.7V70h4.2c5.3,0.4,9.9-3.5,10.4-8.8S96.5,51.3,91.2,50.8z M81.1,85.1
			C81.1,91,76.3,95.7,70.4,95.8H24.2c-5.9,0-10.6-4.8-10.7-10.7h-0.1V36.7H81V85.1H81.1z M90.8,65.7c-0.399,0-0.8,0-1.2,0H85.4V54.9
			H89.6c3-0.301,5.7,1.8,6,4.8C95.9,62.7,93.8,65.4,90.8,65.7z"/>
		<path fill="#FFFFFF" d="M75.5,76.7L75.5,76.7V44.2c0-1.1-0.8-2-1.9-2c-1.1,0-2,0.8-2,1.9c0,0,0,0,0,0.1v32.5c0,1.1,0.801,2,1.9,2
			S75.5,77.8,75.5,76.7z"/>
	</g>
</g>
</svg>
