<?xml version="1.0" encoding="utf-8"?>
<!-- Generator: Adobe Illustrator 16.0.4, SVG Export Plug-In . SVG Version: 6.00 Build 0)  -->
<!DOCTYPE svg PUBLIC "-//W3C//DTD SVG 1.1//EN" "http://www.w3.org/Graphics/SVG/1.1/DTD/svg11.dtd">
<svg version="1.1" id="Layer_1" xmlns="http://www.w3.org/2000/svg" xmlns:xlink="http://www.w3.org/1999/xlink" x="0px" y="0px"
	 width="100px" height="100px" viewBox="0 0 100 100" enable-background="new 0 0 100 100" xml:space="preserve">
<g>
	<path fill="#FFFFFF" d="M99.168,91.867L78.135,62.925c7.462-6.242,12.219-15.617,12.219-26.084
		c0-18.751-15.255-34.006-34.006-34.006c-6.218,0-12.242,1.698-17.526,4.885c-0.513-0.461-1.107-0.836-1.771-1.072V5.559
		c0-2.918-2.375-5.293-5.293-5.293H21.173c-2.921,0-5.296,2.375-5.296,5.293v1.089c-2.047,0.73-3.526,2.67-3.526,4.968v3.529
		c0,2.297,1.479,4.236,3.526,4.967v2.854h-2.065C6.198,22.965,0,29.162,0,36.775v3.665c0,3.383,1.279,6.703,3.527,9.219v5.817
		L0,62.535V91.18C0,96.045,3.955,100,8.821,100h35.285c4.865,0,8.82-3.955,8.82-8.82V70.654c1.139,0.114,2.282,0.192,3.421,0.192
		c4.251,0,8.319-0.791,12.073-2.222L90.049,98.68c0.242,0.337,0.61,0.562,1.021,0.624c0.077,0.011,0.154,0.017,0.23,0.017
		c0.333,0,0.66-0.108,0.93-0.312l6.621-5.006C99.521,93.496,99.661,92.547,99.168,91.867z M19.407,5.559
		c0-0.975,0.789-1.764,1.766-1.764h10.584c0.973,0,1.763,0.789,1.763,1.764v0.764H19.407V5.559z M15.877,11.615
		c0-0.974,0.791-1.764,1.766-1.764h17.642c0.975,0,1.766,0.79,1.766,1.764v3.529c0,0.973-0.791,1.763-1.766,1.763H17.643
		c-0.975,0-1.766-0.79-1.766-1.763V11.615z M33.52,20.436v2.529H19.407v-2.529H33.52z M3.527,36.775
		c0-5.669,4.611-10.281,10.284-10.281h25.307c5.668,0,10.281,4.612,10.281,10.281v3.665c0,2.473-0.927,4.892-2.545,6.753H45.87
		v-8.35c0-2.919-2.374-5.293-5.292-5.293c-2.919,0-5.294,2.374-5.294,5.293v8.35h-3.527v-8.35c0-2.919-2.375-5.293-5.293-5.293
		c-2.917,0-5.291,2.374-5.291,5.293v8.35h-3.53v-8.35c0-2.919-2.373-5.293-5.292-5.293s-5.292,2.374-5.292,5.293v8.35H6.072
		c-1.618-1.861-2.545-4.28-2.545-6.753V36.775z M4.618,61.186l1.766-3.525h40.16l1.765,3.525H4.618z M27.542,65.35l6.728,12.109
		c0.667,1.195,1.015,2.549,1.015,3.912c0,4.436-3.606,8.043-8.043,8.043h-1.553c-4.438,0-8.046-3.607-8.046-8.043
		c0-1.363,0.35-2.717,1.011-3.91l6.731-12.111C25.822,64.566,27.106,64.566,27.542,65.35z M45.87,50.721v3.41H7.059v-3.41H45.87z
		 M10.586,47.193v-8.35c0-0.975,0.79-1.765,1.765-1.765c0.974,0,1.763,0.791,1.763,1.765v8.35H10.586z M24.699,47.193v-8.35
		c0-0.975,0.79-1.765,1.765-1.765s1.764,0.791,1.764,1.765v8.35H24.699z M38.814,47.193v-8.35c0-0.975,0.788-1.765,1.764-1.765
		c0.973,0,1.763,0.791,1.763,1.765v8.35H38.814z M3.527,64.717H21.7l-6.134,11.035c-0.95,1.717-1.453,3.658-1.453,5.619
		c0,3.123,1.253,5.959,3.27,8.043H3.527V64.717z M44.106,96.473H8.821c-2.298,0-4.236-1.482-4.969-3.531h21.836h1.554h21.832
		C48.344,94.99,46.402,96.473,44.106,96.473z M49.399,89.414H35.544c2.019-2.082,3.271-4.918,3.271-8.043
		c0-1.961-0.504-3.904-1.457-5.623l-6.13-11.031h18.172V89.414z M52.927,67.557v-5.021l-3.527-7.059v-5.817
		c2.248-2.517,3.527-5.836,3.527-9.219v-3.665c0-7.613-6.195-13.81-13.809-13.81H37.05v-2.854c2.05-0.731,3.528-2.67,3.528-4.967
		v-3.529c0-0.436-0.068-0.853-0.168-1.256c4.804-2.897,10.283-4.442,15.938-4.442c17.052,0,30.924,13.873,30.924,30.924
		S73.399,67.765,56.348,67.765C55.208,67.765,54.063,67.682,52.927,67.557z M91.629,95.599L71.314,67.367
		c1.523-0.75,2.981-1.612,4.367-2.574l20.104,27.663L91.629,95.599z"/>
	<path fill="#FFFFFF" d="M68.357,21.922c-0.78,0-1.547,0.145-2.278,0.43c-3.227,1.258-4.828,4.906-3.571,8.132
		c0.947,2.431,3.245,4.001,5.854,4.001c0.78,0,1.547-0.145,2.278-0.43c1.805-0.703,3.069-2.278,3.562-4.435
		c0.335-1.47,0.268-3.034,0.01-3.696C73.265,23.493,70.967,21.922,68.357,21.922z M69.521,31.184
		c-0.373,0.146-0.764,0.219-1.159,0.219c-1.328,0-2.498-0.8-2.98-2.038c-0.641-1.643,0.175-3.5,1.817-4.141
		c0.373-0.146,0.764-0.219,1.159-0.219c1.303,0,2.453,0.769,2.952,1.967C71.397,27.512,71.468,30.424,69.521,31.184z"/>
	<path fill="#FFFFFF" d="M79.939,27.71c-2.557-6.561-8.012-10.97-13.575-10.97c-1.23,0-2.426,0.223-3.553,0.662
		c-4.798,1.868-4.748,6.085-4.689,10.967l0.004,0.324c0.007,0.582-0.267,1.493-0.532,2.373c-0.524,1.746-1.12,3.724-0.423,5.514
		c2.557,6.561,8.013,10.97,13.578,10.97c1.229,0,2.424-0.223,3.551-0.662C80.576,44.442,83.106,35.839,79.939,27.71z M73.181,44.016
		c-0.769,0.299-1.587,0.451-2.432,0.451c-4.237,0-8.64-3.704-10.705-9.006c-0.312-0.8,0.12-2.238,0.502-3.507
		c0.332-1.103,0.675-2.243,0.662-3.296l-0.004-0.325c-0.059-4.954,0.024-7.006,2.727-8.059c0.769-0.3,1.588-0.452,2.434-0.452
		c4.235,0,8.637,3.704,10.702,9.006C79.617,35.375,77.874,42.187,73.181,44.016z"/>
</g>
</svg>
