<?xml version="1.0" encoding="utf-8"?>
<!-- Generator: Adobe Illustrator 16.0.4, SVG Export Plug-In . SVG Version: 6.00 Build 0)  -->
<!DOCTYPE svg PUBLIC "-//W3C//DTD SVG 1.1//EN" "http://www.w3.org/Graphics/SVG/1.1/DTD/svg11.dtd">
<svg version="1.1" id="Layer_1" xmlns="http://www.w3.org/2000/svg" xmlns:xlink="http://www.w3.org/1999/xlink" x="0px" y="0px"
	 width="100px" height="100px" viewBox="0 0 100 100" enable-background="new 0 0 100 100" xml:space="preserve">
<g id="Layer_1_1_">
	<g>
		<path fill="#FFFFFF" d="M100.1,44.1c0-1.1-0.899-2-1.899-2h-3.8c0-0.1,0-0.3,0-0.4l0,0C94,35.8,92.2,29.3,89,24s-7.9-9.4-13.9-9.4
			c-3.1,0-5.899,1.1-8.3,2.8c-1-3.5-2.3-7-4.3-9.9C59.6,3.2,55.3-0.1,49.7,0c-5.6,0-9.9,3.6-12.8,8c-1.9,2.9-3.4,6.2-4.4,9.3
			c-2.3-1.7-5.1-2.8-8.1-2.8c-6,0-10.7,4.1-13.9,9.4c-3.2,5.3-5,11.8-5.4,17.7c0,0.2,0,0.3,0,0.5H1.9c-1.1,0-1.9,0.9-1.9,2
			C0,62,8,79,22,90.3v7.5c0,1.101,0.9,1.9,1.9,1.9h52.6c1.1,0,1.9-0.9,1.9-1.9V89.9C92.2,78.6,100,61.8,100.1,44.1z M75,18.5
			c4.2,0,7.8,2.9,10.6,7.5c2.801,4.6,4.5,10.7,4.9,15.9c0,0.1,0,0.1,0,0.2H67.6C66.7,37.6,65.2,32.9,62.8,29c1.3-3,3-5.7,5-7.5
			C70,19.6,72.3,18.5,75,18.5z M40.1,31.1c2.6-3.9,5.7-6.3,9.6-6.3l0,0c4.2,0,7.2,2.1,9.6,5.8c2.101,3.2,3.5,7.4,4.4,11.6h-14H35.3
			C36.3,38.4,37.9,34.3,40.1,31.1z M40.1,10.2c2.6-3.9,5.7-6.3,9.6-6.3l0,0c4.2,0,7.2,2.1,9.6,5.8c2,3,3.4,6.9,4.3,10.9
			c-1.3,1.5-2.399,3.2-3.3,5c-2.7-2.8-6.2-4.7-10.5-4.6c-4.2,0-7.7,2-10.4,5c-1-2-2.3-3.9-3.7-5.6C36.6,16.9,38.1,13.2,40.1,10.2z
			 M8.9,42L8.9,42c0.4-5.3,2.1-11.4,4.9-16c2.8-4.6,6.4-7.5,10.6-7.5c2.7,0,5,1.2,7.2,3.2c2,1.9,3.7,4.6,5.1,7.7
			c-2.6,4-4.3,8.6-5.3,12.8H8.9C8.9,42.1,8.9,42,8.9,42z M74.6,95.9H25.8V91h48.8V95.9z M76.1,86.8H23.9
			C13.5,78.4,7.5,66.8,5.1,55.7h64c1.101,0,2-0.8,2-1.9c0-1.1-0.8-2-1.899-2c0,0,0,0-0.101,0H4.4c-0.3-2-0.5-3.9-0.5-5.7L49.7,46
			h46.5c-0.101,1.9-0.2,3.9-0.5,5.8h-7c-1.101,0-2,0.8-2,1.9c0,1.1,0.8,2,1.899,2c0,0,0,0,0.101,0H95C92.4,67.9,85.9,78.8,76.1,86.8
			z"/>
		<path fill="#FFFFFF" d="M80.8,51.9L80.8,51.9H76.9c-1.101,0-2,0.8-2,1.899c0,1.101,0.8,2,1.899,2c0,0,0,0,0.101,0h3.8
			c1.1,0,2-0.8,2-1.899C82.7,52.8,81.9,51.9,80.8,51.9z"/>
	</g>
</g>
</svg>
