<?xml version="1.0" encoding="utf-8"?>
<!-- Generator: Adobe Illustrator 16.0.4, SVG Export Plug-In . SVG Version: 6.00 Build 0)  -->
<!DOCTYPE svg PUBLIC "-//W3C//DTD SVG 1.1//EN" "http://www.w3.org/Graphics/SVG/1.1/DTD/svg11.dtd">
<svg version="1.1" id="Layer_1" xmlns="http://www.w3.org/2000/svg" xmlns:xlink="http://www.w3.org/1999/xlink" x="0px" y="0px"
	 width="100px" height="100px" viewBox="0 0 100 100" enable-background="new 0 0 100 100" xml:space="preserve">
<g id="Layer_1_1_">
	<g>
		<path fill="#FFFFFF" d="M98.8,22.9c-0.7-2.1-2.399-3.7-4.5-4.4L80.5,14c-0.9-0.3-1.8-0.4-2.7-0.4c0.7-1.6,0.8-3.4,0.5-5.2
			c-0.5-2.5-1.899-4.7-4-6.1c-1.6-1.1-3.5-1.7-5.399-1.7C65.8,0.6,62.8,2.1,61,4.7c-0.1,0.1-0.2,0.3-0.3,0.4l-2.5-1.7l0,0L58.1,3.3
			c-2.399-1.7-5.3-2.6-8.3-2.6c-3.8,0-7.4,1.5-10.1,4.1c-0.9,0.8-1.3,2-1.2,3.2c0.1,1.3,0.8,2.5,1.9,3.2c1.7,1.2,4.2,1,6.1-0.4
			c1.8-1.4,4.5-1.4,6.5-0.1l0,0c0,0,0.1,0,0.1,0.1L57.7,14c-1-0.2-2.101-0.3-3.101-0.3c-5.6,0-10.899,2.8-14.1,7.4L1.8,77.2
			c-2.2,3.2-1.4,7.6,1.8,9.8l16.6,11.4c1.2,0.8,2.6,1.199,4,1.199c2.3,0,4.5-1.1,5.8-3l38.7-56.1c2.5-3.6,3.399-7.9,2.899-11.9
			L80,39.2c1.3,1.7,3.3,2.6,5.5,2.6c2.3,0,4.5-1.1,5.8-3l6.601-9.6C99.2,27.3,99.5,25.1,98.8,22.9z M73.1,21.3
			c0.2-0.8-0.1-1.6-0.8-2.1l-4.5-3.1c-0.399-0.3-1-0.4-1.5-0.3c-0.5,0.1-1,0.4-1.3,0.8l-1.5,2.2c-0.6,0.8-0.4,1.9,0.3,2.6
			c4.601,4.5,5.3,11.5,1.601,16.8L26.6,94.4c-0.9,1.3-2.9,1.699-4.2,0.8L5.8,83.7c-1.4-1-1.7-2.8-0.8-4.2l38.7-56.1
			c2.4-3.5,6.5-5.7,10.8-5.7c1.9,0,3.8,0.4,5.5,1.2c0.9,0.4,1.9,0.1,2.5-0.7L64,16c0.3-0.4,0.4-1,0.3-1.5c-0.1-0.5-0.399-1-0.8-1.3
			l-8.3-5.7l0,0C55.1,7.5,55.1,7.4,55,7.4c-1.6-1.1-3.5-1.7-5.4-1.7c-2,0-4,0.7-5.7,1.9C43.8,7.8,43.3,8,43,8
			c-0.2,0-0.3-0.1-0.4-0.1c-0.2-0.1-0.2-0.2-0.2-0.3c2-1.9,4.6-3,7.4-3c2.101,0,4.2,0.6,6,1.9C55.9,6.6,56,6.6,56.1,6.7l4.4,3
			c0.5,0.4,1.2,0.5,1.8,0.2C62.9,9.7,63.4,9.2,63.5,8.5c0.1-0.3,0.2-0.6,0.3-0.9C64,7.5,64.1,7.2,64.3,7c1-1.5,2.8-2.4,4.601-2.4
			c1.1,0,2.199,0.3,3.1,1c1.2,0.8,2,2.1,2.3,3.6s-0.1,2.9-0.899,4.2c-0.4,0.5-0.801,1-1.301,1.3c-0.5,0.4-0.8,1-0.8,1.6
			c0,0.6,0.3,1.3,0.9,1.6l0.7,0.5c0.699,0.5,1.6,0.5,2.199,0c1.2-0.8,2.7-1,4.101-0.6l7.2,2.3l-7.7,11L74,25.3
			C73.2,24.2,72.8,22.8,73.1,21.3z M94.6,26.9L88,36.5c-0.6,0.8-1.5,1.3-2.5,1.3c-0.9,0-1.8-0.4-2.4-1.1l-1.8-2.2l9-13l2.601,0.9
			c0.899,0.3,1.6,1,1.899,1.9C95.3,25.1,95.1,26.1,94.6,26.9z"/>
		<circle fill="#FFFFFF" cx="69.1" cy="9.8" r="2"/>
		<path fill="#FFFFFF" d="M47,26.5c-0.9-0.6-2.2-0.4-2.8,0.5L27.9,49.9c-0.6,0.9-0.4,2.1,0.5,2.8c0.4,0.2,0.8,0.399,1.2,0.399
			c0.6,0,1.2-0.3,1.6-0.8l16.3-22.9C48.1,28.3,47.9,27.1,47,26.5z"/>
	</g>
	<path fill="#FFFFFF" d="M68.8,63c0-1.1-0.899-2-2-2c-1.1,0-2,0.9-2,2v4.5c0,3.8-1.6,5.5-4.2,8.3c-3.3,3.5-7.8,8.3-7.8,17.3v4.5
		c0,1.101,0.9,2,2,2c1.101,0,2-0.899,2-2v-4.5c0-7.399,3.601-11.199,6.8-14.6c2.801-3,5.301-5.7,5.301-11V63H68.8z"/>
	<path fill="#FFFFFF" d="M84.4,63c0-1.1-0.9-2-2-2c-1.101,0-2,0.9-2,2v4.5c0,3.8-1.601,5.5-4.2,8.3c-3.3,3.5-7.8,8.3-7.8,17.3v4.5
		c0,1.101,0.899,2,2,2c1.1,0,2-0.899,2-2v-4.5c0-7.399,3.6-11.199,6.8-14.6c2.8-3,5.3-5.7,5.3-11V63H84.4z"/>
	<path fill="#FFFFFF" d="M98,61c-1.1,0-2,0.9-2,2v4.5c0,3.8-1.6,5.5-4.2,8.3c-3.3,3.5-7.8,8.3-7.8,17.3v4.5c0,1.101,0.9,2,2,2
		s2-0.899,2-2v-4.5c0-7.399,3.6-11.199,6.8-14.6c2.8-3,5.3-5.7,5.3-11V63C100,61.9,99.1,61,98,61z"/>
</g>
</svg>
