<?xml version="1.0" encoding="utf-8"?>
<!-- Generator: Adobe Illustrator 16.0.4, SVG Export Plug-In . SVG Version: 6.00 Build 0)  -->
<!DOCTYPE svg PUBLIC "-//W3C//DTD SVG 1.1//EN" "http://www.w3.org/Graphics/SVG/1.1/DTD/svg11.dtd">
<svg version="1.1" id="Layer_1" xmlns="http://www.w3.org/2000/svg" xmlns:xlink="http://www.w3.org/1999/xlink" x="0px" y="0px"
	 width="100px" height="100px" viewBox="0 0 100 100" enable-background="new 0 0 100 100" xml:space="preserve">
<g id="Layer_1_1_">
	<g>
		<path fill="#FFFFFF" d="M96.2,79L96.2,79l-0.3-0.1l0,0l0,0L88.4,76.3c2.8-2.8,4.5-6.399,4.5-10.3c0-8.7-3-13.5-5.801-18.1
			C84.4,43.7,81.9,39.6,81.9,32.2v-2.6c0,0-1.101,0.2-2,0.7c-1.7,0.8-12.4,5.3-14,18.2c-0.7-1-1.301-2.6-1.301-5.3v-4.7L61.2,41.9
			c-9,9-11.7,15.2-10.5,24.4c0.5,3.9,2.2,7.3,4.7,10L47.7,79l0,0l0,0h-0.2l0,0c-3,1.2-4.5,4.6-3.5,7.6c0.9,2.4,3.2,4.101,5.7,4.101
			c0.6,0,1.2-0.101,1.7-0.3l0,0l0.3-0.101l0,0l0,0L65.8,85.4v8.5l0,0l0,0v0.3l0,0c0.2,3.2,2.8,5.8,6.101,5.8l0,0
			c1.6,0,3.1-0.7,4.3-1.8c1.1-1.101,1.7-2.5,1.7-4l0,0l0,0v-8.7l13.8,4.8l0,0l0,0l0.2,0.101l0,0c0.6,0.199,1.1,0.3,1.699,0.3
			c2.601,0,4.9-1.601,5.7-4.101C100.7,83.5,99.2,80.2,96.2,79z M50.4,86.6L50.4,86.6C50.2,86.7,49.9,86.7,49.7,86.7
			c-0.9,0-1.7-0.601-2-1.4c-0.4-1.1,0.2-2.3,1.3-2.7l0,0c0.2-0.1,0.5-0.1,0.7-0.1c0.899,0,1.7,0.6,2,1.4
			C52.1,85,51.6,86.2,50.4,86.6z M55.8,84.8c0-0.7-0.1-1.399-0.3-2.2c-0.2-0.699-0.6-1.3-1.1-1.899L59,79.1
			c1.7,1.101,3.6,2,5.7,2.601L55.8,84.8z M74.1,93.9c0,0.6-0.199,1.1-0.6,1.5C73.1,95.8,72.6,96,72,96l0,0c-1.2,0-2.1-1-2.1-2.1l0,0
			c0-0.601,0.199-1.101,0.6-1.5C70.9,92,71.4,91.8,72,91.8C73.1,91.8,74.1,92.7,74.1,93.9L74.1,93.9z M69.8,88.2V84l2-0.7l2.2,0.8
			V88.2c-0.7-0.3-1.4-0.4-2.2-0.4C71.2,87.8,70.5,88,69.8,88.2z M71.8,78.7c-9.2,0-16.1-5.2-17.2-13c-0.8-6.101,0-10.9,6.5-18.2
			c1.601,5.6,6,6.3,6.2,6.3l2.2,0.3V51.9c0-9.2,5.2-14.4,8.4-16.601C78.5,42,81.1,46,83.5,50c2.7,4.3,5.2,8.3,5.2,16
			C89,73,81.3,78.7,71.8,78.7z M88.2,82.6c-0.2,0.7-0.4,1.4-0.3,2.2L79,81.7c2.1-0.601,4.1-1.5,5.8-2.5l4.5,1.6
			C88.8,81.3,88.4,81.9,88.2,82.6z M95.9,85.3c-0.301,0.9-1.101,1.4-2,1.4c-0.2,0-0.5,0-0.7-0.101l0,0C92.1,86.2,91.5,85,91.9,83.9
			c0.3-0.9,1.1-1.4,2-1.4c0.199,0,0.5,0,0.699,0.1l0,0C95.8,83,96.3,84.2,95.9,85.3z"/>
		<path fill="#FFFFFF" d="M16.3,43.9c0.2,0.1,0.4,0.1,0.6,0.1c0.6,0,1.2-0.3,1.6-0.8c0.5-0.7,0.5-1.6,0.1-2.3c-2-3-3-6.4-3-10
			c0-10,8.2-18.2,18.2-18.2c1.7,0,3.4,0.2,5.1,0.7c0.2,0.1,0.4,0.1,0.6,0.1c1.2,0,2-0.9,2-2c0-0.5-0.2-1-0.5-1.3
			c-4.1-6.1-11-9.8-18.4-9.8c-12.3,0-22.2,10-22.2,22.2C0.3,32.4,6.9,41.2,16.3,43.9z M22.5,4.4c4.4,0,8.5,1.5,11.7,4.3
			c-0.2,0-0.3,0-0.5,0c-12.3,0-22.2,10-22.2,22.2c0,2.4,0.4,4.8,1.1,7c-5.1-3.3-8.4-9-8.4-15.3C4.3,12.6,12.4,4.4,22.5,4.4z"/>
		<path fill="#FFFFFF" d="M50.1,21.5l-0.7,4c-0.1,0.8,0.2,1.5,0.8,2c0.6,0.4,1.399,0.5,2.1,0.2l3.601-1.9l3.6,1.9
			c0.3,0.2,0.6,0.2,0.9,0.2c0.399,0,0.8-0.1,1.199-0.4c0.601-0.4,0.9-1.2,0.801-2l-0.7-4l2.899-2.8c0.5-0.5,0.7-1.3,0.5-2.1
			c-0.199-0.7-0.899-1.3-1.6-1.4l-4-0.6L57.7,11c-0.3-0.7-1-1.1-1.8-1.1c-0.801,0-1.5,0.4-1.801,1.1l-1.8,3.6l-4,0.6
			c-0.8,0.1-1.4,0.6-1.6,1.4c-0.2,0.7,0,1.5,0.5,2.1L50.1,21.5z"/>
		<path fill="#FFFFFF" d="M69.8,8.6L69.4,10.7c-0.101,0.8,0.199,1.5,0.8,2c0.6,0.4,1.399,0.5,2.1,0.2l1.9-1l1.899,1
			c0.301,0.2,0.601,0.2,0.9,0.2c0.4,0,0.8-0.1,1.2-0.4c0.6-0.4,0.899-1.2,0.8-2l-0.4-2.1l1.5-1.5c0.5-0.5,0.7-1.3,0.5-2.1
			C80.4,4.3,79.7,3.7,79,3.6l-2-0.2l-1-1.9c-0.3-0.7-1-1.1-1.8-1.1s-1.5,0.4-1.8,1.1l-0.9,1.9l-2.1,0.3C68.6,3.8,68,4.3,67.8,5.1
			c-0.2,0.7,0,1.5,0.5,2.1L69.8,8.6z"/>
		<path fill="#FFFFFF" d="M22.8,59.7c0-1.101-0.9-2-2-2H2.5c-1.1,0-2,0.899-2,2c0,1.1,0.9,2,2,2h18.3C21.9,61.7,22.8,60.8,22.8,59.7
			z"/>
		<path fill="#FFFFFF" d="M41.4,67.7H15.2c-1.1,0-2,0.899-2,2c0,1.1,0.9,2,2,2h26.2c1.1,0,2-0.9,2-2C43.4,68.6,42.5,67.7,41.4,67.7z
			"/>
		<path fill="#FFFFFF" d="M23.8,83H10.6c-1.1,0-2,0.9-2,2s0.9,2,2,2h13.2c1.1,0,2-0.9,2-2S24.9,83,23.8,83z"/>
	</g>
</g>
</svg>
