<?xml version="1.0" encoding="utf-8"?>
<!-- Generator: Adobe Illustrator 16.0.4, SVG Export Plug-In . SVG Version: 6.00 Build 0)  -->
<!DOCTYPE svg PUBLIC "-//W3C//DTD SVG 1.1//EN" "http://www.w3.org/Graphics/SVG/1.1/DTD/svg11.dtd">
<svg version="1.1" id="Layer_1" xmlns="http://www.w3.org/2000/svg" xmlns:xlink="http://www.w3.org/1999/xlink" x="0px" y="0px"
	 width="100px" height="100px" viewBox="0 0 100 100" enable-background="new 0 0 100 100" xml:space="preserve">
<g id="Layer_1_1_">
	<path fill="#FFFFFF" d="M97.9,38.9h-6H83.1c-0.3-2.2-1.199-4.4-2.5-6.2l12.5-23C94.9,6.6,93.8,2.6,90.7,0.8
		C87.6-1,83.6,0.1,81.8,3.2L69.2,26.6c-0.101,0-0.2,0-0.4,0c-2.6,0-5.2,0.7-7.399,2.1c-3.4-8.6-13-12.7-21.5-9.2
		c-3.5,1.4-6.4,4-8.2,7.3c-6.6-1.2-13,3.1-14.3,9.8c-0.1,0.8-0.2,1.6-0.2,2.4H2.1C0.9,38.9,0,39.9,0,41l0,0v22.1
		C0,77.3,11,88.9,24.9,89.9v8c0,1.1,0.9,1.899,1.9,1.899H75c1.1,0,1.9-0.899,1.9-1.899v-8.2C89.9,87.8,99.8,76.6,99.9,63.1V41
		C100,39.9,99.1,38.9,97.9,38.9z M85.5,5.3c0.6-1.1,2.1-1.5,3.2-0.9C89.8,5,90.2,6.5,89.6,7.6l0,0L77.7,29.6
		c-1.2-1-2.601-1.7-4.101-2.2L85.5,5.3z M29.3,30.7c1,0,1.9,0.1,2.8,0.5c1,0.3,2.1-0.2,2.5-1.2c2.7-6.3,9.9-9.2,16.2-6.6
		c3.8,1.6,6.601,5,7.3,9.1c0.2,1.1,1.301,1.9,2.4,1.6c0.4-0.1,0.7-0.3,1-0.5c4.1-3.9,10.6-3.8,14.6,0.3c1.4,1.4,2.301,3.2,2.7,5.1
		H21.3C21.3,34.4,24.8,30.7,29.3,30.7z M73.1,95.9H28.8V90.1h44.3V95.9z M95.9,63.1c0,12.601-10.2,22.7-22.7,22.7H26.9
		c-12.5,0-22.7-10.2-22.7-22.7V51.3h91.7V63.1z M95.9,47.2H4.1v-4.1h15.3h76.4v4.1H95.9z"/>
</g>
</svg>
