<?xml version="1.0" encoding="utf-8"?>
<!-- Generator: Adobe Illustrator 16.0.4, SVG Export Plug-In . SVG Version: 6.00 Build 0)  -->
<!DOCTYPE svg PUBLIC "-//W3C//DTD SVG 1.1//EN" "http://www.w3.org/Graphics/SVG/1.1/DTD/svg11.dtd">
<svg version="1.1" id="Layer_1" xmlns="http://www.w3.org/2000/svg" xmlns:xlink="http://www.w3.org/1999/xlink" x="0px" y="0px"
	 width="100px" height="100px" viewBox="0 0 100 100" enable-background="new 0 0 100 100" xml:space="preserve">
<g id="Layer_1_1_">
	<g>
		<path fill="#FFFFFF" d="M64.8,59c0-2.7-1-5.3-2.7-7.4h3.4c3,0,5.4-2.399,5.4-5.399c0-6.3-5.101-11.4-11.4-11.4
			c-2.7,0-5.3,1-7.4,2.7v-3.4c0-3-2.399-5.4-5.399-5.4c-6.3,0-11.4,5.1-11.4,11.4c0,2.7,1,5.3,2.7,7.4h-3.4c-3,0-5.4,2.4-5.4,5.4
			c0,6.3,5.1,11.399,11.4,11.399c2.7,0,5.3-1,7.4-2.7V65c0,3,2.4,5.4,5.4,5.4C59.7,70.4,64.8,65.3,64.8,59z M48,52.9
			c0,4.1-3.3,7.399-7.4,7.399S33.2,57,33.2,52.9c0-0.7,0.6-1.301,1.3-1.301H48V52.9z M48,47.5h-1.3c-4.1,0-7.4-3.3-7.4-7.4
			s3.3-7.4,7.4-7.4c0.7,0,1.3,0.6,1.3,1.3V47.5z M52,46.2c0-4.1,3.3-7.4,7.4-7.4c4.1,0,7.399,3.3,7.399,7.4c0,0.7-0.6,1.3-1.3,1.3
			H52V46.2z M53.4,66.4C52.7,66.4,52.1,65.8,52.1,65.1V51.6H53.4c4.1,0,7.399,3.301,7.399,7.4C60.8,63,57.4,66.4,53.4,66.4z"/>
		<path fill="#FFFFFF" d="M50,0.4C22.6,0.4,0.4,22.6,0.4,50c0,27.4,22.2,49.6,49.6,49.6C77.4,99.6,99.6,77.4,99.6,50
			C99.6,22.6,77.4,0.4,50,0.4z M50,95.6C24.8,95.6,4.4,75.2,4.4,50S24.8,4.4,50,4.4S95.6,24.8,95.6,50S75.2,95.6,50,95.6z"/>
		<path fill="#FFFFFF" d="M25.8,59.8c-0.4-1-1.6-1.5-2.6-1.1c-1,0.399-1.5,1.6-1.1,2.6c1.5,3.601,3.7,6.9,6.6,9.7
			c0.4,0.4,0.9,0.6,1.4,0.6s1-0.199,1.4-0.6c0.8-0.8,0.8-2.1,0-2.8C29.1,65.8,27.2,63,25.8,59.8z"/>
		<path fill="#FFFFFF" d="M71.5,68c-0.8-0.8-2.1-0.8-2.8,0c-2.2,2.2-4.8,4-7.601,5.4c-1,0.5-1.399,1.699-1,2.699
			c0.301,0.7,1.101,1.2,1.801,1.2c0.3,0,0.6-0.1,0.8-0.2c3.3-1.5,6.2-3.6,8.8-6.199C72.3,70.1,72.3,68.8,71.5,68z"/>
		<path fill="#FFFFFF" d="M74.5,40c0.3,0.8,1.1,1.3,1.9,1.3c0.199,0,0.5,0,0.699-0.1c1-0.4,1.5-1.6,1.101-2.6
			c-1.5-3.9-3.8-7.4-6.8-10.4c-0.801-0.8-2-0.8-2.801,0c-0.8,0.8-0.8,2,0,2.8C71.2,33.6,73.2,36.6,74.5,40z"/>
		<path fill="#FFFFFF" d="M28.5,31.1c0.4,0.4,0.9,0.6,1.4,0.6s1-0.2,1.4-0.6c2.6-2.6,5.8-4.7,9.3-6.1c1-0.4,1.6-1.5,1.2-2.6
			c-0.4-1-1.6-1.5-2.6-1.2c-4,1.5-7.7,3.9-10.7,7C27.7,29,27.7,30.3,28.5,31.1z"/>
		<path fill="#FFFFFF" d="M17.5,63.4c-0.4-1-1.6-1.5-2.6-1.101c-1,0.4-1.5,1.601-1.1,2.601c2,4.699,4.9,8.899,8.5,12.5
			c0.4,0.399,0.9,0.6,1.4,0.6s1-0.2,1.4-0.6c0.8-0.801,0.8-2.101,0-2.801C21.9,71.4,19.3,67.6,17.5,63.4z"/>
		<path fill="#FFFFFF" d="M75.1,74.4c-3,3-6.399,5.399-10.199,7.199c-1,0.5-1.4,1.7-1,2.7c0.3,0.7,1.1,1.2,1.8,1.2
			c0.3,0,0.6-0.1,0.8-0.2c4.2-2,8.1-4.7,11.4-8c0.8-0.8,0.8-2.1,0-2.8C77.2,73.6,75.9,73.6,75.1,74.4z"/>
		<path fill="#FFFFFF" d="M86.7,35.3c-2-5.1-5-9.7-8.9-13.5c-0.8-0.8-2-0.8-2.8,0c-0.8,0.8-0.8,2,0,2.8c3.5,3.5,6.2,7.6,8,12.2
			c0.3,0.8,1.1,1.3,1.9,1.3c0.199,0,0.5,0,0.699-0.1C86.5,37.5,87.1,36.3,86.7,35.3z"/>
		<path fill="#FFFFFF" d="M23.5,25.3c0.5,0,1-0.2,1.4-0.6c3.5-3.6,7.9-6.4,12.5-8.2c1-0.4,1.6-1.5,1.2-2.6c-0.4-1-1.6-1.5-2.6-1.2
			c-5.2,2-10,5.1-13.9,9.1c-0.8,0.8-0.8,2.1,0,2.8C22.5,25.1,23,25.3,23.5,25.3z"/>
	</g>
</g>
</svg>
