<?xml version="1.0" encoding="utf-8"?>
<!-- Generator: Adobe Illustrator 16.0.4, SVG Export Plug-In . SVG Version: 6.00 Build 0)  -->
<!DOCTYPE svg PUBLIC "-//W3C//DTD SVG 1.1//EN" "http://www.w3.org/Graphics/SVG/1.1/DTD/svg11.dtd">
<svg version="1.1" id="Layer_1" xmlns="http://www.w3.org/2000/svg" xmlns:xlink="http://www.w3.org/1999/xlink" x="0px" y="0px"
	 width="100px" height="100px" viewBox="0 0 100 100" enable-background="new 0 0 100 100" xml:space="preserve">
<g id="Layer_1_1_">
	<g>
		<path fill="#FFFFFF" d="M98,37.6H2c-1.2,0-2,0.8-2,2c0,1.2,0.8,2,2,2h23.5l21.9,23.1L19.5,96c-0.7,0.8-0.7,2.1,0.2,2.8
			c0.4,0.3,0.9,0.5,1.3,0.5c0.5,0,1.1-0.2,1.5-0.7L50.2,67.7l29.3,31c0.4,0.399,0.9,0.6,1.5,0.6c0.5,0,1-0.2,1.4-0.5
			c0.8-0.8,0.8-2,0.1-2.8L52.9,64.8l20.699-23H98c1.2,0,2-0.8,2-2C100,38.5,99.2,37.6,98,37.6z M50.1,61.9L31.1,41.8h37.1L50.1,61.9
			z"/>
		<path fill="#FFFFFF" d="M48.8,35h38.5c1,0,2-1,2-2V2c0-1.2-0.8-2-2-2h-23c-0.6,0-1,0.2-1.399,0.6l-2.5,2.5
			c-0.801,0.8-0.801,2,0,2.9c0.8,0.8,2,0.8,2.899,0l1.8-1.8H85.2v9.6H74.8v-1c0-1.2-0.8-2-2-2s-2,0.8-2,2v1h-11
			c-4.899,0-9.2,3.1-10.8,7.8l-3.1,9c-0.4,1-0.2,2.2,0.4,3.1C46.7,34.4,47.8,35,48.8,35z M52.7,22.9c1-2.9,3.899-4.9,7-4.9h25.6
			v12.9H50L52.7,22.9z"/>
	</g>
</g>
</svg>
