<?xml version="1.0" encoding="utf-8"?>
<!-- Generator: Adobe Illustrator 16.0.4, SVG Export Plug-In . SVG Version: 6.00 Build 0)  -->
<!DOCTYPE svg PUBLIC "-//W3C//DTD SVG 1.1//EN" "http://www.w3.org/Graphics/SVG/1.1/DTD/svg11.dtd">
<svg version="1.1" id="Layer_1" xmlns="http://www.w3.org/2000/svg" xmlns:xlink="http://www.w3.org/1999/xlink" x="0px" y="0px"
	 width="100px" height="100px" viewBox="0 0 100 100" enable-background="new 0 0 100 100" xml:space="preserve">
<g id="Layer_1_1_">
	<g>
		<path fill="#FFFFFF" d="M29.1,56.7v3.1c0,2.7,4.1,2.7,4.1,0v-3.1C33.1,54.1,29.1,54.1,29.1,56.7z"/>
		<path fill="#FFFFFF" d="M87.6,43.5V31.3c0-1.1-0.899-2-2-2h-1.5L99.5,3.1c0.6-1,0.2-2.2-0.7-2.7c-1-0.6-2.2-0.2-2.7,0.7L79.5,29.3
			H60.4l0,0c-0.4-0.7-0.801-1.5-1.2-2.1c1.2-0.9,2-2.4,2-4.1v-4c0-2.8-2.3-5.1-5.101-5.1H6.3c-2.8,0-5.1,2.3-5.1,5.1v4
			c0,1.6,0.8,3.1,1.9,4c-1.4,2.1-3.3,5.4-3.1,8.1c0.1,2,1.2,3.2,3.3,3V98c0,1.1,0.9,2,2,2H56.9c0.199,0,0.399,0,0.6-0.1
			c0.1,0,0.2,0,0.3,0h27.8c1.101,0,2-0.9,2-2V89.3C95.2,84.1,99.7,75.6,99.7,66.4C99.8,57.1,95.2,48.7,87.6,43.5z M5.2,19.1
			c0-0.6,0.5-1.1,1.1-1.1H56c0.6,0,1.1,0.5,1.1,1.1v4c0,0.6-0.5,1.1-1.1,1.1H6.3c-0.6,0-1.1-0.5-1.1-1.1V19.1z M4.2,33.7
			c0.6-1.9,2.2-4.2,3.1-5.5H54.9c0.899,1.2,2.5,3.6,3.1,5.5c-0.5-0.3-1.1-0.7-1.7-1c-3.3-2-4.399-2.6-7.4,0.2
			c-2.3,2.1-5.1,2.1-7.6,0.2c-9-5.7-7.6,6.1-12.7,0.4c-3.1-3.5-4.4-2.5-7.7-0.4c-2.5,1.9-5.3,1.9-7.6-0.2c-3-2.8-4.1-2.2-7.4-0.2
			C5.4,33,4.8,33.4,4.2,33.7z M54.8,95.9H7.3V36.6l0.8-0.5c2-1.2,1.3-1.4,2.5-0.3c3.6,3.4,8.4,3.5,12.2,0.9V49c0,2.7,4.1,2.7,4.1,0
			V37.4c0.7,0.6,1.4,1,2.2,1.2v12.3c0,2.699,4.1,2.699,4.1,0V38.6c0.8-0.3,1.5-0.7,2.2-1.2V49c0,2.7,4.1,2.7,4.1,0V36.7
			c3.8,2.6,8.6,2.5,12.2-0.9c1.2-1.1,0.5-0.9,2.5,0.3l0.8,0.5v59.3H54.8z M85,86.2H64.8c-1.1,0-2,0.899-2,2c0,1.1,0.9,2,2,2h18.9
			v5.7H58.9V38.3c2.1,0.1,3.1-1,3.3-3c0-0.6,0-1.3-0.2-2h18.7l0,0l0,0h3v9.3H75c-1.1,0-2,0.9-2,2s0.9,2,2,2h10
			c6.7,4.4,10.7,11.8,10.7,19.8S91.7,81.8,85,86.2z"/>
		<path fill="#FFFFFF" d="M87.8,56l-2.7-4.7c-0.399-0.6-1-1-1.699-1h-5.5c-0.7,0-1.4,0.4-1.7,1L74,55h-4.4
			C68.9,55,68.2,55.4,67.9,56l-2.7,4.7c-0.4,0.6-0.4,1.399,0,2l2.7,4.7c0.399,0.6,1,1,1.699,1H74l2.2,3.699c0.399,0.601,1,1,1.7,1
			h5.5c0.699,0,1.399-0.399,1.699-1l2.7-4.699c0.4-0.601,0.4-1.4,0-2l-2.2-3.7l2.2-3.7C88.2,57.4,88.2,56.6,87.8,56z M79.1,54.3
			H82.2l1.6,2.7l-1.6,2.7H79.1L77.5,57L79.1,54.3z M69.2,61.7l1.6-2.7H73.9l1.6,2.7l-1.6,2.7H70.8L69.2,61.7z M82.2,69.2H79.1
			l-1.6-2.7l1.6-2.7H82.2l1.6,2.7L82.2,69.2z"/>
	</g>
</g>
</svg>
