<?xml version="1.0" encoding="utf-8"?>
<!-- Generator: Adobe Illustrator 16.0.4, SVG Export Plug-In . SVG Version: 6.00 Build 0)  -->
<!DOCTYPE svg PUBLIC "-//W3C//DTD SVG 1.1//EN" "http://www.w3.org/Graphics/SVG/1.1/DTD/svg11.dtd">
<svg version="1.1" id="Layer_1" xmlns="http://www.w3.org/2000/svg" xmlns:xlink="http://www.w3.org/1999/xlink" x="0px" y="0px"
	 width="100px" height="100px" viewBox="0 0 100 100" enable-background="new 0 0 100 100" xml:space="preserve">
<g id="Layer_1_1_">
	<g>
		<path fill="#FFFFFF" d="M9.9,0c-5.5,0-10,4.5-10,10s4.5,10,10,10s10-4.5,10-10S15.4,0,9.9,0z M9.9,16.1c-3.4,0-6.1-2.7-6.1-6.1
			s2.7-6.1,6.1-6.1S16,6.6,16,10C16,13.3,13.2,16.1,9.9,16.1z"/>
		<path fill="#FFFFFF" d="M38.3,20c5.5,0,10-4.5,10-10s-4.5-10-10-10s-10,4.5-10,10S32.8,20,38.3,20z M38.3,3.9
			c3.4,0,6.1,2.7,6.1,6.1s-2.7,6.1-6.1,6.1c-3.4,0-6.1-2.7-6.1-6.1S34.9,3.9,38.3,3.9z"/>
		<path fill="#FFFFFF" d="M66.1,20c5.5,0,10-4.5,10-10s-4.5-10-10-10s-10,4.5-10,10S60.6,20,66.1,20z M66.1,3.9
			c3.4,0,6.101,2.7,6.101,6.1s-2.7,6.1-6.101,6.1C62.7,16.1,60,13.4,60,10S62.7,3.9,66.1,3.9z"/>
		<path fill="#FFFFFF" d="M9.9,24.8c-5.5,0-10,4.5-10,10s4.5,10,10,10s10-4.5,10-10S15.4,24.8,9.9,24.8z M9.9,41
			c-3.4,0-6.1-2.7-6.1-6.1s2.7-6.1,6.1-6.1s6.1,2.7,6.1,6.1C16,38.2,13.2,41,9.9,41z"/>
		<path fill="#FFFFFF" d="M38.3,44.8c5.5,0,10-4.5,10-10s-4.5-10-10-10s-10,4.5-10,10S32.8,44.8,38.3,44.8z M38.3,28.7
			c3.4,0,6.1,2.7,6.1,6.1c0,3.4-2.7,6.1-6.1,6.1c-3.4,0-6.1-2.7-6.1-6.1C32.2,31.5,34.9,28.7,38.3,28.7z"/>
		<path fill="#FFFFFF" d="M9.9,49.7c-5.5,0-10,4.5-10,10s4.5,10,10,10s10-4.5,10-10S15.4,49.7,9.9,49.7z M9.9,65.8
			c-3.4,0-6.1-2.7-6.1-6.1c0-3.4,2.7-6.101,6.1-6.101S16,56.3,16,59.7C16,63.1,13.2,65.8,9.9,65.8z"/>
		<path fill="#FFFFFF" d="M99.9,72.9C98.9,58,79.5,54.4,73.6,53.7V32.6c0-4.3-3.5-7.7-7.699-7.7c-4.2,0-7.601,3.4-7.7,7.6l-4,32.9
			l-8.8-7.7c-1.6-2.101-4.1-3.4-6.7-3.4c-1.8,0-3.6,0.601-5,1.7c-1.8,1.3-3,3.3-3.3,5.5c-0.3,2.2,0.2,4.3,1.5,6.1l9.7,15.9
			c0.1,0.1,0.2,0.4,0.4,0.7c2.8,4.3,11,11.6,17.1,15.5c0.301,0.2,0.7,0.3,1,0.3h25.2c0.2,0,0.3,0,0.5-0.1
			C95.3,97.4,101,89.3,99.9,72.9z M85,96.1H60.6C57,93.1,51.1,89.9,44.9,81.7c-0.3-0.3,0,0-0.1-0.2l-9.7-15.8
			c0-0.101-0.1-0.2-0.2-0.2c-0.7-1-1-2.2-0.9-3.4c0.2-1.199,0.8-2.3,1.8-3c1.9-1.5,4.9-1,6.3,0.9l11.7,11.5
			c0.5,0.6,1.3,0.9,2.101,0.7c0.8-0.2,1.3-0.8,1.399-1.601L62,32.8c0-0.1,0-0.2,0-0.2c0-2.1,1.7-3.8,3.8-3.8
			c2.101,0,3.8,1.7,3.8,3.8v22.8c0,1,0.801,1.899,1.801,1.899C71.7,57.4,95,59,96,73.2C97,87.3,92.4,93.9,85,96.1z"/>
	</g>
</g>
</svg>
