<?xml version="1.0" encoding="utf-8"?>
<!-- Generator: Adobe Illustrator 16.0.4, SVG Export Plug-In . SVG Version: 6.00 Build 0)  -->
<!DOCTYPE svg PUBLIC "-//W3C//DTD SVG 1.1//EN" "http://www.w3.org/Graphics/SVG/1.1/DTD/svg11.dtd">
<svg version="1.1" id="Layer_1" xmlns="http://www.w3.org/2000/svg" xmlns:xlink="http://www.w3.org/1999/xlink" x="0px" y="0px"
	 width="100px" height="100px" viewBox="0 0 100 100" enable-background="new 0 0 100 100" xml:space="preserve">
<g id="Layer_1_1_">
	<g>
		<path fill="#FFFFFF" d="M18.8,0.5c-0.5-0.2-1-0.3-1.5-0.3c-1.1,0-2.2,0.4-2.9,1.2C1.1,14.5,0,56.6,0,58c0,1,0.4,2,1.1,2.7
			c0.8,0.7,1.8,1.1,2.9,1.1h3.1v34.5c0,2.101,1.8,3.7,4,3.7h6.2c2.2,0,4-1.7,4-3.7V3.9C21.3,2.4,20.3,1,18.8,0.5z M17.3,96.3h-6.2
			V58.1H4c0,0,0.9-41.899,13.3-54.2V96.3z"/>
		<path fill="#FFFFFF" d="M56.8,0H51.4c-0.5,0-1,0.1-1.4,0.2C49.6,0.1,49.1,0,48.6,0h-4.9c-0.5,0-1,0.1-1.4,0.2
			C41.9,0.1,41.4,0,40.9,0h-5c-2.1,0-3.8,1.5-4,3.4c-0.4,3.7-1.6,40.3,7,46.3v46.6c0,2.101,1.8,3.7,4,3.7h6.9c2.2,0,4-1.7,4-3.7
			V49.7c8.601-6,7.4-42.6,7-46.3C60.7,1.5,58.9,0,56.8,0z M49.8,47.5v48.7h-6.9V47.5c-9.1-3.2-7-43.8-7-43.8h5v30.7h2.8V3.7h4.9
			v30.7h2.8V3.7H56.8C56.8,3.7,58.9,44.3,49.8,47.5z"/>
		<path fill="#FFFFFF" d="M85.1,0C76.8,0,69.2,10.5,69.2,24c0,9.3,3.2,17.7,8.3,21.6V98c0,1.1,0.9,2,2,2H90c1.1,0,2-0.9,2-2V45.4
			c4.9-4,8-12.3,8-21.4C100,10.5,93.5,0,85.1,0z M88.8,42.7c-0.5,0.4-0.899,1-0.899,1.6V96h-6.4V44.6c0-0.7-0.3-1.3-0.9-1.7
			C76.2,40,73.2,32.4,73.2,24c0-10.8,6-20,11.899-20C91,4,96,13.2,96,24C96,32.2,93.1,39.8,88.8,42.7z"/>
	</g>
</g>
</svg>
