<?xml version="1.0" encoding="utf-8"?>
<!-- Generator: Adobe Illustrator 16.0.4, SVG Export Plug-In . SVG Version: 6.00 Build 0)  -->
<!DOCTYPE svg PUBLIC "-//W3C//DTD SVG 1.1//EN" "http://www.w3.org/Graphics/SVG/1.1/DTD/svg11.dtd">
<svg version="1.1" id="Layer_1" xmlns="http://www.w3.org/2000/svg" xmlns:xlink="http://www.w3.org/1999/xlink" x="0px" y="0px"
	 width="100px" height="100px" viewBox="0 0 100 100" enable-background="new 0 0 100 100" xml:space="preserve">
<g id="Layer_1_1_">
	<g>
		<path fill="#FFFFFF" d="M53.1,18.6L49.3,11V7.4c0-3.3-2.7-6-6-6H10.1c-3.3,0-6,2.7-6,6v3.5l-3.8,7.6v0.1v0.1C0.1,19,0,19.2,0,19.4
			c0,0,0,0,0,0.1v78.3c0,1.101,0.9,2,2,2h49.3c1.101,0,2-0.899,2-2V19.5C53.4,19.1,53.3,18.8,53.1,18.6z M8,7.4c0-1.1,0.9-2,2-2
			h33.2c1.1,0,2,0.9,2,2v3.5L42,17.4H5.3l2-4h32c1.1,0,2-0.9,2-2s-0.9-2-2-2H8V7.4z M4,21.5h37.2v4H4V21.5z M4,29.5h37.2v58.1H4
			V29.5z M4,91.7h37.2v4H4V91.7z M49.3,95.7h-4V19.9l2-4l2,4V95.7z"/>
	</g>
	<path fill="#FFFFFF" d="M98,39.2H59.6c-1.1,0-2,0.9-2,2v46.3c0,0.2,0,0.4,0.101,0.5c0.3,6.6,5.6,11.9,12,11.9H88l0,0
		c6.6,0,12-5.601,12-12.5V41.2C100,40.1,99.1,39.2,98,39.2z M96,43.2v9.1H61.6v-9.1H96z M87.9,96H69.7c-4.4,0-8-3.8-8.101-8.5
		c0-0.2,0-0.3-0.1-0.5V56.3H96v31.2C96,92.2,92.4,96,87.9,96z"/>
</g>
</svg>
