<?xml version="1.0" encoding="utf-8"?>
<!-- Generator: Adobe Illustrator 16.0.4, SVG Export Plug-In . SVG Version: 6.00 Build 0)  -->
<!DOCTYPE svg PUBLIC "-//W3C//DTD SVG 1.1//EN" "http://www.w3.org/Graphics/SVG/1.1/DTD/svg11.dtd">
<svg version="1.1" id="Layer_1" xmlns="http://www.w3.org/2000/svg" xmlns:xlink="http://www.w3.org/1999/xlink" x="0px" y="0px"
	 width="100px" height="100px" viewBox="0 0 100 100" enable-background="new 0 0 100 100" xml:space="preserve">
<g id="Layer_1_1_">
	<g>
		<path fill="#FFFFFF" d="M42.2,42.4c0.4,0,0.8,0,1.2-0.1c1.7-0.3,3.3-1.4,4.4-3c1.4-2.1,1.9-4.8,1.4-7.6c-0.8-4.5-4.2-7.8-8-7.8
			c-0.4,0-0.8,0-1.2,0.1c-2.1,0.4-3.9,1.8-4.9,3.9c-1,1.9-1.3,4.3-0.9,6.6C35,39.1,38.3,42.4,42.2,42.4z M38.5,29.8
			c0.3-0.6,1-1.6,2.1-1.8c0.1,0,0.3,0,0.4,0c1.8,0,3.6,2,4.1,4.6c0.3,1.7,0,3.4-0.8,4.6c-0.3,0.5-0.9,1.1-1.8,1.3
			c-1.9,0.4-4-1.8-4.6-4.5C37.8,32.4,38,30.9,38.5,29.8z"/>
		<path fill="#FFFFFF" d="M34.7,54.9c3.7-1.301,5.5-6,3.9-10.4c-1.3-3.7-4.3-6.1-7.5-6.1c-0.7,0-1.3,0.1-2,0.3
			c-3.7,1.3-5.5,6-3.9,10.4c1.3,3.7,4.3,6.1,7.5,6.1C33.4,55.3,34.1,55.2,34.7,54.9z M29,47.9c-0.8-2.3-0.1-4.8,1.5-5.3
			c0.2-0.1,0.5-0.1,0.7-0.1c1.3,0,3,1.2,3.8,3.4c0.8,2.3,0.1,4.8-1.5,5.3c-0.2,0.1-0.4,0.1-0.7,0.1C31.5,51.3,29.8,50.1,29,47.9z"/>
		<path fill="#FFFFFF" d="M56.8,42.9C57.2,43,57.6,43,58,43c3.8,0,7.2-3.3,8-7.8c0.4-2.3,0.1-4.7-0.9-6.6
			C64,26.5,62.2,25.1,60.2,24.7c-0.4-0.1-0.8-0.1-1.2-0.1c-3.8,0-7.2,3.3-8,7.8c-0.5,2.7,0,5.5,1.4,7.6
			C53.5,41.6,55.1,42.6,56.8,42.9z M55,33.1c0.5-2.6,2.3-4.6,4.1-4.6c0.101,0,0.301,0,0.4,0c1.2,0.2,1.8,1.2,2.1,1.8
			c0.601,1.1,0.801,2.6,0.5,4.1c-0.5,2.8-2.6,4.9-4.5,4.5c-0.899-0.2-1.5-0.8-1.8-1.3C54.9,36.5,54.6,34.8,55,33.1z"/>
		<path fill="#FFFFFF" d="M71,39.4c-0.6-0.2-1.3-0.3-2-0.3c-3.2,0-6.3,2.5-7.5,6.1c-0.7,2.1-0.8,4.3-0.1,6.2
			c0.699,2.1,2.199,3.6,4,4.199c0.6,0.2,1.3,0.301,2,0.301c3.199,0,6.3-2.5,7.6-6.101C76.5,45.3,74.7,40.6,71,39.4z M71.2,48.5
			c-0.8,2.2-2.5,3.4-3.8,3.4c-0.2,0-0.5,0-0.7-0.101c-0.9-0.3-1.4-1.2-1.601-1.8c-0.399-1.1-0.3-2.4,0.101-3.6
			C66,44.2,67.7,43,69,43c0.2,0,0.5,0,0.7,0.1C71.3,43.7,72,46.1,71.2,48.5z"/>
		<path fill="#FFFFFF" d="M65.4,57.2L61.5,55c-2.1-1.2-3.7-3.1-4.6-5.4L55.3,45.3c-0.899-2.4-3.2-4.1-5.8-4.1c-2.5,0-4.9,1.6-5.8,4
			L42,49.5c-0.9,2.3-2.5,4.3-4.6,5.4L33.6,57.1c-2.3,1.2-3.7,3.601-3.7,6.2c0,3.5,3,11.7,7.8,11.7c0.3,0,0.6,0,0.9-0.1
			c0.9-0.101,7-0.801,13-0.801c3.7,0,6.601,0.301,8.601,0.801c0.3,0.1,0.7,0.1,1,0.1c2.1,0,4.1-1.6,5.8-4.8c1.2-2.3,2-5,2-6.9v-0.1
			C68.8,60.7,67.5,58.5,65.4,57.2z M63.4,68.5c-1.101,2.1-2.101,2.6-2.2,2.6l0,0C58.9,70.5,55.6,70.2,51.6,70.2
			C44.9,70.2,38.2,71,38,71h-0.3c-1.1,0-3.8-4.7-3.8-7.7c0-1.2,0.6-2.1,1.7-2.7l3.9-2.3c2.8-1.6,5.1-4.399,6.3-7.5l1.7-4.3
			c0.3-0.9,1.1-1.5,2-1.5s1.7,0.6,2,1.5l1.6,4.3c1.2,3.101,3.4,5.8,6.301,7.5l3.899,2.2c0.9,0.6,1.5,1.6,1.601,2.8
			C64.9,64.5,64.4,66.6,63.4,68.5z"/>
		<path fill="#FFFFFF" d="M50,0.4C22.6,0.4,0.4,22.6,0.4,50c0,27.4,22.2,49.6,49.6,49.6C77.4,99.6,99.6,77.4,99.6,50
			C99.6,22.6,77.4,0.4,50,0.4z M83.9,80.6L72.6,69.3c-0.8-0.8-2-0.8-2.8,0s-0.8,2,0,2.8L81.1,83.4C72.9,91,62,95.6,50,95.6
			C24.8,95.6,4.4,75.2,4.4,50c0-12,4.7-22.9,12.2-31.1l12.2,12.2c0.4,0.4,0.9,0.6,1.4,0.6s1-0.2,1.4-0.6c0.8-0.8,0.8-2,0-2.8
			L19.4,16.1C27.5,8.8,38.3,4.4,50,4.4c25.2,0,45.6,20.5,45.6,45.6C95.6,61.7,91.2,72.5,83.9,80.6z"/>
	</g>
</g>
</svg>
