<?xml version="1.0" encoding="utf-8"?>
<!-- Generator: Adobe Illustrator 16.0.4, SVG Export Plug-In . SVG Version: 6.00 Build 0)  -->
<!DOCTYPE svg PUBLIC "-//W3C//DTD SVG 1.1//EN" "http://www.w3.org/Graphics/SVG/1.1/DTD/svg11.dtd">
<svg version="1.1" id="Layer_1" xmlns="http://www.w3.org/2000/svg" xmlns:xlink="http://www.w3.org/1999/xlink" x="0px" y="0px"
	 width="100px" height="100px" viewBox="0 0 100 100" enable-background="new 0 0 100 100" xml:space="preserve">
<g id="Layer_1_1_">
	<path fill="#FFFFFF" d="M50,0.4C22.6,0.4,0.4,22.6,0.4,50c0,27.4,22.2,49.6,49.6,49.6C77.4,99.6,99.6,77.4,99.6,50
		C99.6,22.6,77.4,0.4,50,0.4z M50,95.6C24.8,95.6,4.4,75.2,4.4,50c0-11.8,4.5-22.5,11.8-30.6l16.5,16.5c-2.7,3.3-5.4,7.7-5.4,14.6
		V55c0,1.1,0.9,2,2,2c1.1,0,2-0.9,2-2v-4.5c0-5.4,1.9-8.9,4.2-11.7l10.9,10.9L30.1,65.9L30,66c0,0.1-0.1,0.1-0.1,0.2
		c0,0.1-0.1,0.1-0.1,0.2c0,0.1-0.1,0.1-0.1,0.199c0,0.101,0,0.101-0.1,0.2c0,0.101,0,0.101,0,0.2s0,0.2,0,0.2v0.1l0,0
		c0,0.4,0.1,0.8,0.3,1.101c0.1,0.1,0.2,0.199,0.3,0.3l8.7,8.7c0.3,0.3,0.7,0.5,1,0.5c0.1,0,0.3,0,0.4,0c0.1,0,0.3,0,0.4,0h0.1
		c0.1,0,0.2,0,0.3-0.101c0,0,0.1,0,0.1-0.1c0.1,0,0.1-0.101,0.2-0.101l0.1-0.1c0.1,0,0.1-0.1,0.2-0.1l16.5-16L80.6,83.8
		C72.5,91.2,61.8,95.6,50,95.6z M63.9,49.6l-5.7,5.7l-5.9-5.9l5.7-5.7L63.9,49.6z M60.8,40.9l7.101-7.1l5.899,5.9l-7.1,7.1
		L60.8,40.9z M55.1,58.4L40.3,73.2l-5.9-5.9l15.1-14.6L55.1,58.4z M83.4,81L60.8,58.4l7.3-7.301l0,0L78,41.2
		c0.1-0.1,0.2-0.2,0.3-0.3c0.101-0.1,0.101-0.2,0.101-0.2s0-0.1,0.1-0.1c0-0.1,0.1-0.2,0.1-0.3v-0.1c0-0.1,0-0.3,0-0.4l0,0l0,0
		c0-0.1,0-0.2,0-0.4v-0.1c0-0.1,0-0.2-0.1-0.3c0-0.1-0.1-0.1-0.1-0.1c0-0.1-0.101-0.1-0.101-0.2c-0.1-0.1-0.2-0.2-0.3-0.3l-8.7-8.7
		c-0.2-0.2-0.399-0.3-0.6-0.4c-0.5-0.2-1.101-0.2-1.7,0c-0.2,0.1-0.4,0.2-0.6,0.4l-9.9,9.9l0,0l-7.3,7.3L38.1,35.7
		c2.8-3,5.2-5.6,5.2-10.9v-4.5c0-1.1-0.9-2-2-2c-1.1,0-2,0.9-2,2v4.5c0,3.7-1.5,5.4-4,8.1L19,16.6C27.1,9,38,4.4,50,4.4
		c25.2,0,45.6,20.5,45.6,45.6C95.6,62,91,72.9,83.4,81z"/>
</g>
</svg>
