<?xml version="1.0" encoding="utf-8"?>
<!-- Generator: Adobe Illustrator 16.0.4, SVG Export Plug-In . SVG Version: 6.00 Build 0)  -->
<!DOCTYPE svg PUBLIC "-//W3C//DTD SVG 1.1//EN" "http://www.w3.org/Graphics/SVG/1.1/DTD/svg11.dtd">
<svg version="1.1" id="Layer_1" xmlns="http://www.w3.org/2000/svg" xmlns:xlink="http://www.w3.org/1999/xlink" x="0px" y="0px"
	 width="100px" height="100px" viewBox="0 0 100 100" enable-background="new 0 0 100 100" xml:space="preserve">
<g>
	<path fill="#FFFFFF" d="M34.543,42.337v-8.984c1.187-0.619,2.002-1.862,2.006-3.29v-6.025c-0.005-2.037-1.667-3.697-3.707-3.702
		h-2.315V2.466c0-1.233-1.041-2.2-2.369-2.2c-0.489,0-0.965,0.142-1.362,0.401l-9.61,5.139c-0.062,0.033-0.121,0.069-0.178,0.11
		c-0.552,0.389-0.892,1.023-0.909,1.738v12.682h-2.319c-2.038,0.005-3.698,1.666-3.702,3.707v6.024
		c0.003,1.426,0.818,2.668,2.006,3.287v8.984C4.738,45.727,0.049,52.997,0.044,61.173v33.115c0,3.149,2.564,5.712,5.715,5.712h35.11
		c3.151,0,5.715-2.562,5.715-5.712V61.172C46.581,52.997,41.893,45.727,34.543,42.337z M27.128,4.346v15.99h-7.626l0-11.911
		L27.128,4.346z M13.481,24.045c0-0.17,0.139-0.309,0.306-0.309h4.015h11.026h4.011c0.171,0,0.31,0.14,0.31,0.306v6.017
		c0,0.171-0.141,0.312-0.313,0.312H13.793c-0.172,0-0.312-0.14-0.312-0.308V24.045z M14.413,45.039
		c0.648-0.257,1.074-0.883,1.074-1.581v-9.687h15.656v9.687c0,0.697,0.426,1.324,1.074,1.581c2.044,0.81,3.864,1.971,5.408,3.394
		H9.004C10.549,47.009,12.368,45.849,14.413,45.039z M43.185,94.288c0,1.274-1.039,2.312-2.315,2.312H5.76
		c-1.276,0-2.315-1.037-2.315-2.312V61.174c0.001-3.406,0.985-6.618,2.722-9.341h34.296c1.737,2.723,2.72,5.935,2.722,9.34V94.288z"
		/>
	<path fill="#FFFFFF" d="M87.35,42.337v-8.984c1.188-0.62,2.002-1.863,2.005-3.29V24.04c-0.004-2.038-1.664-3.699-3.705-3.704
		h-2.316V2.466c0-1.233-1.04-2.2-2.368-2.2c-0.488,0-0.965,0.142-1.362,0.401l-9.608,5.139c-0.058,0.031-0.113,0.065-0.167,0.102
		c-0.558,0.387-0.902,1.022-0.922,1.746v12.682h-2.317c-2.039,0.005-3.699,1.667-3.701,3.707v6.022
		c0.001,1.426,0.816,2.67,2.005,3.289v8.983c-7.35,3.389-12.039,10.661-12.043,18.835v33.115c0,3.149,2.564,5.712,5.717,5.712
		h35.109c3.151,0,5.715-2.562,5.715-5.712V61.172C99.386,52.997,94.697,45.727,87.35,42.337z M79.933,4.347v15.989h-7.627
		l-0.001-11.91L79.933,4.347z M66.287,24.044c0-0.169,0.139-0.308,0.305-0.308h4.014h11.027h4.013c0.17,0,0.309,0.139,0.309,0.306
		v6.018c0,0.17-0.14,0.31-0.312,0.311H66.599c-0.172,0-0.312-0.139-0.312-0.308V24.044z M67.218,45.039
		c0.648-0.257,1.074-0.883,1.074-1.581v-9.687h15.657v9.687c0,0.697,0.426,1.324,1.074,1.581c5.138,2.035,8.863,6.275,10.304,11.394
		H56.912C58.353,51.313,62.079,47.074,67.218,45.039z M95.989,94.288c0,1.274-1.038,2.312-2.314,2.312H58.565
		c-1.277,0-2.316-1.037-2.316-2.312V61.174c0-0.45,0.018-0.897,0.052-1.341h39.637c0.034,0.443,0.052,0.89,0.052,1.34V94.288z"/>
</g>
</svg>
