<?xml version="1.0" encoding="utf-8"?>
<!-- Generator: Adobe Illustrator 16.0.4, SVG Export Plug-In . SVG Version: 6.00 Build 0)  -->
<!DOCTYPE svg PUBLIC "-//W3C//DTD SVG 1.1//EN" "http://www.w3.org/Graphics/SVG/1.1/DTD/svg11.dtd">
<svg version="1.1" id="Layer_1" xmlns="http://www.w3.org/2000/svg" xmlns:xlink="http://www.w3.org/1999/xlink" x="0px" y="0px"
	 width="100px" height="100px" viewBox="0 0 100 100" enable-background="new 0 0 100 100" xml:space="preserve">
<g id="Layer_1_1_">
	<g>
		<path fill="#FFFFFF" d="M48.8,78.1H37.2c-1.1,0-2-0.899-2-2V23.9c0-1.1,0.9-2,2-2H54.6c10.7,0,19.4,8.7,19.4,19.4
			c0,10.7-8.7,19.4-19.4,19.4h-3.8V76.1C50.8,77.2,49.9,78.1,48.8,78.1z M39.2,74.1h7.6V58.7c0-1.101,0.9-2,2-2h5.8
			c8.5,0,15.4-6.9,15.4-15.4s-6.9-15.4-15.4-15.4H39.2V74.1z M54.6,49.1h-5.8c-1.1,0-2-0.9-2-2V35.5c0-1.1,0.9-2,2-2h5.8
			c4.4,0,7.801,3.4,7.801,7.8C62.4,45.7,59,49.1,54.6,49.1z M50.8,45.1h3.8c2.101,0,3.801-1.7,3.801-3.8c0-2.1-1.7-3.8-3.801-3.8
			h-3.8V45.1z"/>
		<path fill="#FFFFFF" d="M50,0.4C22.6,0.4,0.4,22.6,0.4,50c0,27.4,22.2,49.6,49.6,49.6C77.4,99.6,99.6,77.4,99.6,50
			C99.6,22.6,77.4,0.4,50,0.4z M50,95.6C24.8,95.6,4.4,75.2,4.4,50S24.8,4.4,50,4.4S95.6,24.8,95.6,50S75.2,95.6,50,95.6z"/>
	</g>
</g>
</svg>
