<?xml version="1.0" encoding="utf-8"?>
<!-- Generator: Adobe Illustrator 16.0.4, SVG Export Plug-In . SVG Version: 6.00 Build 0)  -->
<!DOCTYPE svg PUBLIC "-//W3C//DTD SVG 1.1//EN" "http://www.w3.org/Graphics/SVG/1.1/DTD/svg11.dtd">
<svg version="1.1" id="Layer_1" xmlns="http://www.w3.org/2000/svg" xmlns:xlink="http://www.w3.org/1999/xlink" x="0px" y="0px"
	 width="100px" height="100px" viewBox="0 0 100 100" enable-background="new 0 0 100 100" xml:space="preserve">
<g id="Layer_1_1_">
	<path fill="#FFFFFF" d="M94.5,45.1H86c-0.5,0-1.9,0.1-2.4,0.2V1.9C83.6,0.8,82.7,0,81.7,0h-7.9C72.7,0,71.9,0.9,71.9,1.9v2H28.2v-2
		c0-1.1-0.9-1.9-1.9-1.9h-7.9c-1.1,0-1.9,0.9-1.9,1.9v43.3c-0.4-0.1-0.9-0.2-1.4-0.2H5.4c-1.5,0-2.8,0.6-3.9,1.6
		c-1,1-1.6,2.4-1.5,3.9c0.1,2.9,2.6,5.2,5.5,5.2h3v38.6c0,3,2.3,5.4,5.2,5.5c0.1,0,1.1,0,1.2,0c1.4,0,2.7-0.5,3.8-1.5
		c1.1-1,1.6-2.399,1.6-3.899v-7H50c0,0,0,0,0.1,0c0,0,0,0,0.1,0h29.6V94.3c0,3,3.3,5.5,6.2,5.5c0.1,0,0.1,0,0.2,0
		c1.399,0,2.7-0.5,3.8-1.5s1.6-2.399,1.6-3.899V55.9H94.7c1.5,0,2.8-0.601,3.899-1.601c1-1.1,1.601-2.399,1.5-3.9
		C99.9,47.4,97.5,45.1,94.5,45.1z M28.2,17.5h7v40h-7V17.5z M71.8,57.4h-7v-40h7V57.4z M20.3,62.7c0-0.8,0.6-1.4,1.4-1.4h4.6h47.5
		H78.4c0.699,0,1.399,0.601,1.399,1.4V65.6c0,0.801-0.6,1.4-1.399,1.4H21.6c-0.8,0-1.4-0.6-1.4-1.4V62.7H20.3z M61,57.4h-9.1v-40H61
		V57.4z M48.1,57.4H39v-40h9.1V57.4z M75.7,3.9h4v46.2c0,0.1,0,0.2,0,0.3v7.1h-1.3h-2.7v-42V5.9V3.9z M71.8,7.9v5.7H28.2V7.9H71.8z
		 M20.3,3.9h4v2v9.6v41.9h-2.7h-1.4V50.3V3.9H20.3z M16.4,94.6c0,0.4-0.2,0.801-0.5,1.101C15.6,96,15.2,96.1,14.8,96.1
		c-0.8,0-2.5-0.8-2.5-1.6V53.9c0-1.101-0.9-1.9-1.9-1.9H5.5c-0.9,0-1.6-0.7-1.6-1.5c0-0.4,0.1-0.8,0.4-1.1C4.6,49.1,5,49,5.4,49H15
		c0.8,0,1.4,0.6,1.4,1.4v9v3.3V65.6V94.6L16.4,94.6z M50.1,83.7C50.1,83.7,50,83.7,50.1,83.7c-0.1,0-0.1,0-0.1,0H20.3V70.6
		c0.4,0.101,0.9,0.2,1.4,0.2h56.7c0.5,0,0.899-0.1,1.399-0.2V83.7H50.1z M95.7,51.5C95.4,51.8,95,52,94.6,52h-5.1
		c-1.1,0-1.9,0.9-1.9,1.9V94.6c0,0.4-0.199,0.801-0.5,1.101C86.8,96,86.4,96.1,86,96.1c-0.8,0-2.5-0.8-2.5-1.6V65.9
		c0-0.101,0-0.2,0-0.301V62.7c0-0.101,0-0.2,0-0.3v-2.9c0-0.1,0-0.1,0-0.1v-9.2c0.1-0.7,1.6-1.2,2.4-1.2h8.5
		c0.899,0,1.6,0.7,1.699,1.5C96.2,50.8,96,51.2,95.7,51.5z"/>
</g>
</svg>
