<?xml version="1.0" encoding="utf-8"?>
<!-- Generator: Adobe Illustrator 16.0.4, SVG Export Plug-In . SVG Version: 6.00 Build 0)  -->
<!DOCTYPE svg PUBLIC "-//W3C//DTD SVG 1.1//EN" "http://www.w3.org/Graphics/SVG/1.1/DTD/svg11.dtd">
<svg version="1.1" id="Layer_1" xmlns="http://www.w3.org/2000/svg" xmlns:xlink="http://www.w3.org/1999/xlink" x="0px" y="0px"
	 width="100px" height="100px" viewBox="0 0 100 100" enable-background="new 0 0 100 100" xml:space="preserve">
<g>
	<path fill="#FFFFFF" d="M45.066,36.319c-0.165-1.99-1.199-3.805-2.823-4.962V17.732c0.001-9.831-7.966-17.801-17.794-17.801
		c-9.826,0-17.793,7.97-17.793,17.801c0,2.783,0,11.046,0,13.58c-1.625,1.158-2.659,2.972-2.824,4.962L0.023,92.666
		C-0.299,96.614,2.818,100,6.776,100c0.005,0,0.01,0,0.015,0c0.003,0,0.007,0,0.01,0h0.001h0.005h35.311c0.008,0,0.017,0,0.025,0
		c3.959,0,7.078-3.386,6.754-7.334L45.066,36.319z M10.056,29.514V24.2h28.788v5.313H10.056z M24.449,3.331
		c7.938,0,14.395,6.46,14.395,14.401V20.8H10.056v-3.068C10.056,9.791,16.513,3.331,24.449,3.331z M44.626,95.511
		c-0.647,0.702-1.528,1.089-2.507,1.089H6.807H6.802h-0.01c-0.005,0-0.011,0-0.017,0c-0.952,0-1.832-0.387-2.478-1.088
		c-0.648-0.703-0.963-1.615-0.882-2.615l3.807-56.362c0.088-0.985,0.6-1.878,1.407-2.452c0.433-0.309,0.776-0.712,1.02-1.168h29.572
		c0.245,0.475,0.602,0.893,1.05,1.212c0.812,0.579,1.326,1.48,1.404,2.424l3.834,56.396C45.587,93.896,45.274,94.809,44.626,95.511z
		"/>
	<path fill="#FFFFFF" d="M99.977,92.666l-3.83-56.347c-0.166-1.99-1.199-3.805-2.824-4.962V17.732
		c0-9.831-7.967-17.801-17.795-17.801c-9.826,0-17.793,7.97-17.793,17.801c0,2.783,0,11.046,0,13.58
		c-1.625,1.158-2.658,2.972-2.824,4.962l-3.809,56.393C50.779,96.614,53.896,100,57.855,100c0.005,0,0.01,0,0.015,0
		c0.003,0,0.007,0,0.01,0h0.001h0.006h35.311c0.009,0,0.018,0,0.025,0C97.182,100,100.3,96.614,99.977,92.666z M61.135,29.514V24.2
		h28.787v5.313H61.135z M75.527,3.331c7.938,0,14.395,6.46,14.395,14.401V20.8H61.135v-3.069
		C61.135,9.791,67.591,3.331,75.527,3.331z M95.705,95.511c-0.646,0.702-1.528,1.089-2.508,1.089H57.887h-0.006H57.87
		c-0.007,0-0.011,0-0.017,0c-0.951,0-1.832-0.387-2.479-1.088c-0.648-0.703-0.963-1.615-0.882-2.615L58.3,36.534
		c0.089-0.986,0.601-1.879,1.407-2.454c0.433-0.308,0.775-0.711,1.02-1.166H90.3c0.245,0.475,0.602,0.893,1.05,1.212
		c0.808,0.575,1.319,1.469,1.407,2.454l3.831,56.365C96.666,93.896,96.354,94.809,95.705,95.511z"/>
	<path fill="#FFFFFF" d="M14.602,39.803c-0.944-0.064-1.743,0.658-1.799,1.595l-2.667,44.333c-0.057,0.938,0.658,1.743,1.595,1.8
		c0.035,0.002,0.069,0.003,0.104,0.003c0.892,0,1.641-0.695,1.695-1.598l2.667-44.334C16.253,40.665,15.539,39.859,14.602,39.803z"
		/>
	<path fill="#FFFFFF" d="M34.076,39.804c-0.937,0.063-1.645,0.875-1.582,1.811l3,44.334c0.061,0.897,0.808,1.585,1.694,1.585
		c0.039,0,0.078-0.001,0.117-0.004c0.937-0.063,1.645-0.874,1.582-1.812l-3-44.333C35.823,40.448,35.015,39.744,34.076,39.804z"/>
	<path fill="#FFFFFF" d="M65.629,39.803c-0.905-0.064-1.742,0.657-1.799,1.595l-2.666,44.334c-0.056,0.937,0.658,1.742,1.596,1.799
		c0.034,0.002,0.068,0.003,0.104,0.003c0.892,0,1.641-0.695,1.695-1.599l2.666-44.333C67.28,40.665,66.566,39.859,65.629,39.803z"/>
	<path fill="#FFFFFF" d="M85.104,39.804c-0.937,0.063-1.645,0.875-1.581,1.811l3,44.334c0.061,0.897,0.808,1.585,1.694,1.585
		c0.039,0,0.078-0.001,0.117-0.004c0.937-0.063,1.645-0.874,1.581-1.812l-3-44.333C86.852,40.447,86.021,39.744,85.104,39.804z"/>
	<circle fill="#FFFFFF" cx="24.461" cy="9.828" r="2.33"/>
	<circle fill="#FFFFFF" cx="16.83" cy="14.488" r="2.33"/>
	<circle fill="#FFFFFF" cx="31.861" cy="14.488" r="2.33"/>
	<circle fill="#FFFFFF" cx="75.654" cy="9.828" r="2.33"/>
	<circle fill="#FFFFFF" cx="68.023" cy="14.488" r="2.33"/>
	<circle fill="#FFFFFF" cx="83.055" cy="14.488" r="2.33"/>
</g>
</svg>
