<?xml version="1.0" encoding="utf-8"?>
<!-- Generator: Adobe Illustrator 16.0.4, SVG Export Plug-In . SVG Version: 6.00 Build 0)  -->
<!DOCTYPE svg PUBLIC "-//W3C//DTD SVG 1.1//EN" "http://www.w3.org/Graphics/SVG/1.1/DTD/svg11.dtd">
<svg version="1.1" id="Layer_1" xmlns="http://www.w3.org/2000/svg" xmlns:xlink="http://www.w3.org/1999/xlink" x="0px" y="0px"
	 width="100px" height="100px" viewBox="0 0 100 100" enable-background="new 0 0 100 100" xml:space="preserve">
<g id="Layer_1_1_">
	<g>
		<path fill="#FFFFFF" d="M97,33.7L86.9,23.6c-0.801-0.8-2.101-0.8-2.9,0c-2.1,2-5.6,2-7.7,0c-2.1-2.1-2.1-5.5,0-7.7
			c0.8-0.8,0.8-2.1,0-2.9l-10-10c-3.8-3.8-9.8-3.8-13.6,0L3,52.7c-3.8,3.8-3.8,9.8,0,13.6L13.1,76.4c0.8,0.8,2.1,0.8,2.9,0
			c2.1-2.101,5.5-2.101,7.7,0c1,1,1.6,2.399,1.6,3.8c0,1.399-0.5,2.8-1.6,3.8c-0.8,0.8-0.8,2.1,0,2.9l10,10.1
			c1.8,1.8,4.3,2.8,6.8,2.8s4.9-1,6.8-2.8L97,47.3C100.8,43.6,100.8,37.5,97,33.7z M94.1,44.4L44.4,94.1c-2.1,2.2-5.7,2.2-7.8,0
			l-8.8-8.8c1-1.5,1.5-3.3,1.5-5.1c0-2.5-1-4.9-2.8-6.7c-3.2-3.2-8.2-3.7-11.8-1.3l-8.8-8.8c-2.2-2.2-2.2-5.7,0-7.801L55.6,6
			c2.2-2.2,5.7-2.2,7.801,0l8.8,8.8c-2.4,3.7-1.9,8.6,1.2,11.8c1.8,1.8,4.199,2.8,6.699,2.8c1.801,0,3.601-0.5,5.101-1.5l8.8,8.8
			C96.2,38.8,96.2,42.3,94.1,44.4z"/>
		<path fill="#FFFFFF" d="M52.4,25.1c-0.801-0.8-2.101-0.8-2.9,0c-0.8,0.8-0.8,2.1,0,2.9L72,50.5c0.4,0.4,0.9,0.6,1.4,0.6
			s1-0.199,1.399-0.6c0.8-0.8,0.8-2.1,0-2.9L52.4,25.1z"/>
		<path fill="#FFFFFF" d="M40.6,37c-0.8-0.8-2.1-0.8-2.9,0c-0.8,0.8-0.8,2.1,0,2.9l22.5,22.5C60.6,62.8,61.1,63,61.6,63
			s1-0.2,1.4-0.6c0.8-0.801,0.8-2.101,0-2.9L40.6,37z"/>
		<path fill="#FFFFFF" d="M27.3,50.2c-0.8-0.8-2.1-0.8-2.9,0c-0.8,0.8-0.8,2.1,0,2.899l22.5,22.5c0.4,0.4,0.9,0.601,1.4,0.601
			s1-0.2,1.4-0.601c0.8-0.8,0.8-2.1,0-2.899L27.3,50.2z"/>
	</g>
</g>
</svg>
