<?xml version="1.0" encoding="utf-8"?>
<!-- Generator: Adobe Illustrator 16.0.4, SVG Export Plug-In . SVG Version: 6.00 Build 0)  -->
<!DOCTYPE svg PUBLIC "-//W3C//DTD SVG 1.1//EN" "http://www.w3.org/Graphics/SVG/1.1/DTD/svg11.dtd">
<svg version="1.1" id="Layer_1" xmlns="http://www.w3.org/2000/svg" xmlns:xlink="http://www.w3.org/1999/xlink" x="0px" y="0px"
	 width="100px" height="100px" viewBox="0 0 100 100" enable-background="new 0 0 100 100" xml:space="preserve">
<g id="Layer_1_1_">
	<g>
		<path fill="#FFFFFF" d="M99.2,0.7c-0.4-0.5-0.9-0.8-1.601-0.8H2.4c-0.6,0-1.2,0.3-1.6,0.8C0.5,1.2,0.4,1.8,0.6,2.4L10.2,27
			c0.3,0.7,1,1.2,1.8,1.2h3.4l6.2,22.2c0.2,0.8,1,1.4,1.8,1.4h53.1c0.9,0,1.6-0.6,1.8-1.4l6.2-22.2h3.4c0.8,0,1.5-0.5,1.8-1.2
			l9.5-24.6C99.6,1.8,99.5,1.2,99.2,0.7z M75.1,48H24.9l-5.6-19.8h61.3L75.1,48z M86.8,24.4h-3.6H16.8h-3.6l-8-20.7h89.6L86.8,24.4z
			"/>
		<path fill="#FFFFFF" d="M24.4,33.4l2.9,10.5c0.2,0.8,1,1.4,1.8,1.4h8.4c1.1,0,1.9-0.9,1.9-1.9V32.8c0-1.1-0.9-1.9-1.9-1.9H26.2
			c-0.6,0-1.2,0.3-1.5,0.8C24.3,32.2,24.2,32.8,24.4,33.4z M35.7,34.8v6.7h-5.1l-1.9-6.7H35.7z"/>
		<path fill="#FFFFFF" d="M62.4,45.2H70.8c0.9,0,1.601-0.6,1.8-1.4l2.9-10.5c0.2-0.6,0-1.2-0.3-1.7c-0.4-0.5-0.9-0.8-1.5-0.8H62.4
			c-1.101,0-1.9,0.9-1.9,1.9v10.5C60.5,44.4,61.4,45.2,62.4,45.2z M64.3,34.8h7L69.4,41.5H64.3V34.8z"/>
		<path fill="#FFFFFF" d="M44.7,45.2h10.7c1.1,0,1.899-0.9,1.899-1.9V32.8c0-1.1-0.899-1.9-1.899-1.9H44.7c-1.1,0-1.9,0.9-1.9,1.9
			v10.5C42.8,44.4,43.6,45.2,44.7,45.2z M46.6,34.8h6.9v6.7h-6.9V34.8z"/>
		<path fill="#FFFFFF" d="M38.4,63.2c0-1.101-0.9-2-2-2s-2,0.899-2,2v4.5c0,3.8-1.6,5.5-4.2,8.3c-3.3,3.5-7.8,8.3-7.8,17.3v4.5
			c0,1.101,0.9,2,2,2s2-0.899,2-2v-4.5c0-7.399,3.6-11.2,6.8-14.6c2.8-3,5.3-5.7,5.3-11v-4.5H38.4z"/>
		<path fill="#FFFFFF" d="M54,63.2c0-1.101-0.9-2-2-2s-2,0.899-2,2v4.5c0,3.8-1.6,5.5-4.2,8.3c-3.3,3.5-7.8,8.3-7.8,17.3v4.5
			c0,1.101,0.9,2,2,2s2-0.899,2-2v-4.5c0-7.399,3.6-11.2,6.8-14.6c2.8-3,5.3-5.7,5.3-11v-4.5H54z"/>
		<path fill="#FFFFFF" d="M67.6,61.2c-1.1,0-2,0.899-2,2v4.5c0,3.8-1.6,5.5-4.199,8.3C58.1,79.5,53.6,84.3,53.6,93.3v4.5
			c0,1.101,0.9,2,2,2c1.101,0,2-0.899,2-2v-4.5c0-7.399,3.601-11.2,6.801-14.6c2.8-3,5.3-5.7,5.3-11v-4.5
			C69.6,62.1,68.8,61.2,67.6,61.2z"/>
	</g>
</g>
</svg>
