<?xml version="1.0" encoding="utf-8"?>
<!-- Generator: Adobe Illustrator 16.0.4, SVG Export Plug-In . SVG Version: 6.00 Build 0)  -->
<!DOCTYPE svg PUBLIC "-//W3C//DTD SVG 1.1//EN" "http://www.w3.org/Graphics/SVG/1.1/DTD/svg11.dtd">
<svg version="1.1" id="Layer_1" xmlns="http://www.w3.org/2000/svg" xmlns:xlink="http://www.w3.org/1999/xlink" x="0px" y="0px"
	 width="100px" height="100px" viewBox="0 0 100 100" enable-background="new 0 0 100 100" xml:space="preserve">
<g id="Layer_1_1_">
	<g>
		<path fill="#FFFFFF" d="M46.8,33.6c-1.2,0-2.1,1-2.1,2.2c0,3.3-3,6-7.3,6.8v-4.4c0.1-0.1,0.2-0.1,0.3-0.2l2.8-2
			c1.2-0.9,1.9-2.2,1.9-3.7c0-2.5-1.9-4.5-4.3-4.5h-5.6c-2.4,0-4.3,2-4.3,4.5c0,1.4,0.7,2.8,1.9,3.7l2.8,2c0.1,0.1,0.2,0.1,0.3,0.2
			v4.4c-4.2-0.7-7.3-3.5-7.3-6.8c0-1.2-1-2.2-2.2-2.2c-1.2,0-2.2,1-2.2,2.2c0,6.2,6.2,11.3,13.7,11.3C42.8,47.1,49,42,49,35.8
			C49,34.6,48,33.6,46.8,33.6z M38,32.3c0,0.1,0,0.1-0.1,0.2l-2.8,2l-2.7-1.9c-0.1,0-0.1-0.1-0.1-0.2s0-0.1,0-0.2h5.5
			C38,32.2,38,32.2,38,32.3z"/>
		<path fill="#FFFFFF" d="M45.2,28.9c1.2,0,2.1-1,2.1-2.2c0-1.2-1-2.1-2.1-2.1c-1.2,0-2.2,1-2.2,2.1C43,27.9,44,28.9,45.2,28.9z"/>
		<path fill="#FFFFFF" d="M25.3,28.9c1.2,0,2.2-1,2.2-2.2c0-1.2-1-2.1-2.2-2.1c-1.2,0-2.2,1-2.2,2.1C23.1,27.9,24.1,28.9,25.3,28.9z
			"/>
		<path fill="#FFFFFF" d="M78.3,60.9c3.4,0,6.101-2.7,6.101-6.101c0-3.399-2.7-6.1-6.101-6.1c-3.3,0-6.1,2.7-6.1,6.1
			C72.2,58.2,74.9,60.9,78.3,60.9z"/>
		<path fill="#FFFFFF" d="M97.8,64.2H92v-21c0-0.5-0.1-0.9-0.4-1.2L80,25.5c-0.7-0.9-2.1-1.2-3-0.5c-0.2,0.2-0.4,0.3-0.5,0.5
			L64.9,42c-0.301,0.4-0.4,0.8-0.4,1.2V52.1c-2.1-2.5-4.7-4.5-7.7-6.2c3.5-4.3,5.4-10,5.4-15.9c0-2.6-0.4-5.2-1.101-7.7
			c2.7-1.5,4.601-4,5.5-6.9c1-3.1,0.601-6.4-0.899-9.2C63.6,2.2,59.5-0.2,55-0.2c-1.9,0-3.9,0.5-5.6,1.4c-2.1,1.1-3.8,2.8-4.9,4.9
			c-2.9-0.9-6-1.3-9-1.3h-0.3h-0.3c-3,0-6,0.4-9,1.3c-2.1-3.9-6.1-6.3-10.6-6.3c-1.9,0-3.7,0.4-5.4,1.3C4,4,1.6,11.3,4.6,17.3
			c1.1,2.1,2.7,3.9,4.8,5c-0.8,2.5-1.1,5.1-1.1,7.7c0,5.9,1.9,11.6,5.4,15.9C5.8,50.2,1.2,57.2,0.2,66.1L0,68.5c0,0.1,0,0.2,0,0.3
			c0.3,4,2.8,7.4,6.4,8.9c-1,2.2-1.5,4.5-1.5,6.899c0,8.5,6.2,15.4,13.7,15.4c3.8,0,7.4-1.8,10-4.9c4,2.101,9,2.101,13.1,0
			c2.6,3.101,6.2,4.9,10,4.9c5.2,0,9.8-3.2,12.2-8.3H97.8c1.2,0,2.2-1,2.2-2.2V66.4C100,65.2,99,64.2,97.8,64.2z M70.8,41.1
			l7.4-10.6L85.6,41.1H70.8z M95.7,68.6v18.9H80.4V68.6H95.7z M65.5,85.1h6.1c1.2,0,2.2-1,2.2-2.199V73c0-1.2-1-2.2-2.2-2.2H70
			c0.2-0.7,0.3-1.399,0.4-2.1c0-0.101,0-0.101,0-0.2H76.1v18.9H65.3C65.4,86.6,65.5,85.9,65.5,85.1z M87.7,45.4v18.9H70
			c-0.3-1.5-0.7-3.1-1.2-4.6V45.4H87.7z M59.5,18.2c-1.1-2.3-2.7-4.3-4.5-6.1c-1.9-1.8-4-3.4-6.4-4.5C50,5.4,52.4,4,55.1,4
			C59.4,4,62.9,7.5,62.9,11.8C62.9,14.4,61.6,16.8,59.5,18.2z M51.8,95.7c-5.2,0-9.4-5-9.4-11.101c0-6.1,4.2-11.1,9.4-11.1
			c5.2,0,9.4,5,9.4,11.1C61.2,90.7,57,95.7,51.8,95.7z M18.7,95.7c-5.2,0-9.4-5-9.4-11.101c0-6.1,4.2-11.1,9.4-11.1
			c5.2,0,9.4,5,9.4,11.1C28.1,90.7,23.9,95.7,18.7,95.7z M51.9,44.9c-4.101,4-9.9,6.2-16.7,6.2c-6.8,0-12.6-2.1-16.7-6.2
			c-3.8-3.8-5.9-9-5.9-14.9c0-5.8,2.1-11.1,5.9-14.8c4.1-4,9.9-6.2,16.7-6.2c6.8,0,12.6,2.1,16.7,6.2C55.7,19,57.8,24.2,57.8,30
			C57.9,35.8,55.8,41.1,51.9,44.9z M16.8,49.1c1.7,1.5,3.7,2.7,5.7,3.6C19.1,57,16.9,63,16.6,69.4c-3,0.5-5.7,2.1-7.8,4.6
			c-2.5-0.7-4.3-2.8-4.5-5.3L4.4,66.6C5.3,58.7,9.6,52.7,16.8,49.1z M26.9,54.3c2.6,0.7,5.4,1,8.2,1h0.2h0.2c2.7,0,5.5-0.3,8.2-1
			c3.4,3.601,5.6,9.101,6,15.101C43.1,70.6,38.2,77,38.2,84.6c0,2.301,0.5,4.7,1.4,6.801c-2.6,1.199-5.8,1.199-8.5,0
			c0.9-2.101,1.4-4.5,1.4-6.801c0-7.5-4.9-14-11.5-15.199C21.3,63.4,23.5,57.9,26.9,54.3z M53.9,69.4c-0.4-6.4-2.5-12.301-6-16.7
			c2-0.9,4-2.101,5.7-3.6c7.2,3.6,11.5,9.6,12.4,17.4l0.2,2c-0.2,2.6-2,4.7-4.5,5.4C59.6,71.5,56.9,69.9,53.9,69.4z M7.6,11.8
			c0-4.3,3.5-7.8,7.8-7.8c2.6,0,5.1,1.3,6.5,3.5c-2.4,1.2-4.5,2.7-6.4,4.5c-1.8,1.8-3.3,3.9-4.5,6.1C8.9,16.8,7.6,14.4,7.6,11.8z"/>
		<path fill="#FFFFFF" d="M82.8,83.9c0.3,0.1,0.5,0.199,0.8,0.199h8.5c1,0,1.801-0.8,1.801-1.8c0-0.3-0.101-0.5-0.2-0.8L89.5,73
			c-0.4-0.9-1.6-1.3-2.5-0.8c-0.4,0.2-0.7,0.5-0.8,0.8L82,81.4C81.8,81.8,81.7,82.3,81.9,82.8C82,83.3,82.3,83.7,82.8,83.9z"/>
	</g>
</g>
</svg>
