<?xml version="1.0" encoding="utf-8"?>
<!-- Generator: Adobe Illustrator 16.0.4, SVG Export Plug-In . SVG Version: 6.00 Build 0)  -->
<!DOCTYPE svg PUBLIC "-//W3C//DTD SVG 1.1//EN" "http://www.w3.org/Graphics/SVG/1.1/DTD/svg11.dtd">
<svg version="1.1" id="Layer_1" xmlns="http://www.w3.org/2000/svg" xmlns:xlink="http://www.w3.org/1999/xlink" x="0px" y="0px"
	 width="100px" height="100px" viewBox="0 0 100 100" enable-background="new 0 0 100 100" xml:space="preserve">
<g id="Layer_1_1_">
	<g>
		<circle fill="#FFFFFF" cx="50" cy="66.8" r="5.9"/>
		<path fill="#FFFFFF" d="M50,47.9c-5.7,0-11.1,2.2-15.1,6.3c-0.8,0.8-0.8,2,0,2.8c0.4,0.4,0.9,0.6,1.4,0.6s1-0.199,1.4-0.6
			c3.3-3.3,7.6-5.1,12.3-5.1c4.6,0,9,1.8,12.3,5.1c0.8,0.8,2,0.8,2.8,0c0.801-0.8,0.801-2,0-2.8C61.1,50.1,55.7,47.9,50,47.9z"/>
		<path fill="#FFFFFF" d="M50,36.7c-8.7,0-16.9,3.4-23,9.5c-0.8,0.8-0.8,2,0,2.8c0.4,0.4,0.9,0.6,1.4,0.6s1-0.2,1.4-0.6
			c5.4-5.4,12.6-8.4,20.2-8.4c7.6,0,14.8,3,20.2,8.4c0.8,0.8,2,0.8,2.8,0s0.8-2,0-2.8C66.9,40.1,58.7,36.7,50,36.7z"/>
		<path fill="#FFFFFF" d="M50,26.3c-11.5,0-22.3,4.5-30.4,12.6c-0.8,0.8-0.8,2,0,2.8c0.4,0.4,0.9,0.6,1.4,0.6s1-0.2,1.4-0.6
			c7.4-7.4,17.1-11.4,27.5-11.4s20.2,4.1,27.5,11.4c0.8,0.8,2,0.8,2.8,0c0.8-0.8,0.8-2,0-2.8C72.3,30.8,61.5,26.3,50,26.3z"/>
		<path fill="#FFFFFF" d="M50,0.4C22.6,0.4,0.4,22.6,0.4,50c0,27.4,22.2,49.6,49.6,49.6C77.4,99.6,99.6,77.4,99.6,50
			C99.6,22.6,77.4,0.4,50,0.4z M50,95.6C24.8,95.6,4.4,75.2,4.4,50S24.8,4.4,50,4.4S95.6,24.8,95.6,50S75.2,95.6,50,95.6z"/>
	</g>
</g>
</svg>
